<?xml version="1.0" encoding="UTF-8"?>
<svg width="63px" height="81px" viewBox="0 0 63 81" version="1.1" xmlns="http://www.w3.org/2000/svg" xmlns:xlink="http://www.w3.org/1999/xlink">
    <!-- Generator: Sketch 46.2 (44496) - http://www.bohemiancoding.com/sketch -->
    <title>Group 4</title>
    <desc>Created with Sketch.</desc>
    <defs>
        <path d="M0.244611321,0.0293904932 C0.123090559,0.0293904932 0.0277023013,0.119463711 0.0277023013,0.230628929 L0.0277023013,1.85298416 C0.0277023013,2.86038653 0.900324792,3.67657782 1.97674388,3.67657782 L13.0164803,3.67657782 C14.092253,3.67657782 14.9655219,2.86021365 14.9655219,1.85298416 L14.9655219,0.230628929 C14.9655219,0.119463711 14.8683792,0.0293904932 14.7486129,0.0293904932 L0.244611321,0.0293904932 Z" id="path-1"></path>
        <path d="M0.29881549,0.0293904932 C0.177294728,0.0293904932 0.0819064709,0.119463711 0.0819064709,0.230628929 L0.0819064709,1.85298416 C0.0819064709,2.86038653 0.954528962,3.67657782 2.03094805,3.67657782 L13.0706845,3.67657782 C14.1465495,3.67657782 15.0197261,2.86021365 15.0197261,1.85298416 L15.0197261,0.230628929 C15.0197261,0.119463711 14.9225833,0.0293904932 14.802817,0.0293904932 L0.29881549,0.0293904932 Z" id="path-3"></path>
        <path d="M0.282748155,0.0293904932 C0.161135053,0.0293904932 0.0658391361,0.119463711 0.0658391361,0.230628929 L0.0658391361,1.85298416 C0.0658391361,2.86038653 0.938369286,3.67657782 2.01488072,3.67657782 L13.0546172,3.67657782 C14.1303899,3.67657782 15.0036587,2.86021365 15.0036587,1.85298416 L15.0036587,0.230628929 C15.0036587,0.119463711 14.906516,0.0293904932 14.7866574,0.0293904932 L0.282748155,0.0293904932 Z" id="path-5"></path>
        <path d="M31.0813445,0.0751880961 C30.937459,0.0751880961 30.7914896,0.111785675 30.658024,0.188876121 L0.486836653,17.6012615 C0.0799162345,17.8360658 -0.0585327522,18.3550448 0.176141905,18.7613323 C0.410272913,19.1668045 0.930362693,19.3068537 1.33655825,19.0723212 L31.5077456,1.66002634 C31.9145754,1.42522207 32.0530244,0.90615244 31.8184404,0.499955545 C31.6612355,0.22782899 31.3753674,0.0752786842 31.0816163,0.0751880961 C31.0815257,0.0751880961 31.0814351,0.0751880961 31.0813445,0.0751880961 Z" id="path-7"></path>
        <path d="M0.199518762,0.499955545 C-0.0352465025,0.90615244 0.1033837,1.42522207 0.510213511,1.66002634 L30.6813103,19.0723212 C31.0875964,19.3068537 31.6075956,19.1668045 31.8418172,18.7613323 C32.0764013,18.3550448 31.9379523,17.8360658 31.5310319,17.6012615 L1.35993511,0.188876121 C1.22628834,0.111785675 1.0804095,0.0751880961 0.936614644,0.0751880961 C0.642591763,0.075097508 0.356632992,0.227738402 0.199518762,0.499955545 Z" id="path-9"></path>
        <path d="M0.921125566,0.0337320742 C0.449305088,0.0337320742 0.0656319057,0.423834684 0.0656319057,0.905004602 C0.0656319057,1.38515234 0.448667,1.77627713 0.921125566,1.77627713 L61.8273518,1.77627713 C62.2991722,1.77627713 62.6827543,1.38617452 62.6827543,0.905004602 C62.6827543,0.424856868 62.2998103,0.0337320742 61.8273518,0.0337320742 L0.921125566,0.0337320742 Z" id="path-11"></path>
        <path d="M0.938510514,0.0447902473 C0.471934121,0.0447902473 0.0886295367,0.434892857 0.0886295367,0.916062775 C0.0886295367,1.39630343 0.469209852,1.7873353 0.938510514,1.7873353 L39.263702,1.7873353 C39.7301876,1.7873353 40.1134922,1.39723269 40.1134922,0.916062775 C40.1134922,0.435915041 39.7330935,0.0447902473 39.263702,0.0447902473 L0.938510514,0.0447902473 Z" id="path-13"></path>
        <path d="M0.921125566,0.070809478 C0.449305088,0.070809478 0.0656319057,0.460819162 0.0656319057,0.942082005 C0.0656319057,1.42232266 0.448667,1.81335453 0.921125566,1.81335453 L61.8273518,1.81335453 C62.2991722,1.81335453 62.6827543,1.42325192 62.6827543,0.942082005 C62.6827543,0.461841346 62.2998103,0.070809478 61.8273518,0.070809478 L0.921125566,0.070809478 Z" id="path-15"></path>
        <path d="M50.4742006,0.511357535 C50.3468537,0.758186224 50.3318825,0.925187206 50.3318825,1.39716189 L50.3318825,9.12248391 C50.3318825,9.59445859 50.3468537,9.76145958 50.4742006,10.0082883 C50.6315813,10.2914908 50.968617,10.48752 51.3806003,10.48752 C51.7925835,10.48752 52.1296192,10.2914908 52.2869999,10.0082883 C52.4143469,9.76145958 52.4292268,9.59445859 52.4292268,9.12248391 L52.4292268,1.39716189 C52.4292268,0.925187206 52.4143469,0.758186224 52.2869999,0.511357535 C52.1296192,0.228066523 51.7925835,0.0320372841 51.3806003,0.0320372841 C50.968617,0.0320372841 50.6315813,0.228066523 50.4742006,0.511357535 Z M45.2210263,0.511357535 C45.0937707,0.758186224 45.0787081,0.925187206 45.0787081,1.39716189 L45.0787081,6.81358693 C45.0787081,8.00436499 44.3746029,8.7159113 43.2510289,8.7159113 C42.1273635,8.7159113 41.4232583,8.00436499 41.4232583,6.81358693 L41.4232583,1.39716189 C41.4232583,0.925187206 41.4082871,0.758186224 41.2809401,0.511357535 C41.1236507,0.228066523 40.7865237,0.0320372841 40.3745405,0.0320372841 C39.9625573,0.0320372841 39.6254303,0.228066523 39.4681408,0.511357535 C39.3407939,0.758186224 39.3258227,0.925187206 39.3258227,1.39716189 L39.3258227,6.88615757 C39.3258227,9.07894152 41.0636744,10.5165483 43.2510289,10.5165483 C45.4382007,10.5165483 47.1761438,9.07894152 47.1761438,6.88615757 L47.1761438,1.39716189 C47.1761438,0.925187206 47.1611725,0.758186224 47.0338256,0.511357535 C46.8765362,0.228066523 46.5394092,0.0320372841 46.127426,0.0320372841 C45.7154427,0.0320372841 45.3783157,0.228066523 45.2210263,0.511357535 Z M12.0830769,0.278954474 C12.2853714,0.104696429 12.5100314,0.0320372841 12.8320959,0.0320372841 C13.1542516,0.0320372841 13.3789117,0.104696429 13.5812061,0.278954474 C13.7460724,0.416927198 13.8583568,0.583928179 14.0081606,0.961472527 L17.0868521,8.87565522 C17.2891466,9.39842936 17.4089166,9.78323077 17.0344528,10.1753777 C16.8396439,10.3785755 16.5625845,10.48752 16.2853425,10.48752 C16.0531056,10.48752 15.8658737,10.4222064 15.7085842,10.2987478 C15.528838,10.1535181 15.4464048,10.0010312 15.2666585,9.53640208 L14.9145603,8.59970977 L10.7497228,8.59970977 L10.3976245,9.53640208 C10.2178782,10.0010312 10.1354451,10.1535181 9.95569879,10.2987478 C9.79831809,10.4222064 9.61108617,10.48752 9.37884922,10.48752 C9.10169851,10.48752 8.8246391,10.3785755 8.62983027,10.1753777 C8.25527515,9.78323077 8.37513644,9.39842936 8.57743089,8.87565522 L11.6560311,0.961472527 C11.8059262,0.583928179 11.9182106,0.416927198 12.0830769,0.278954474 Z M12.8320959,3.14699941 L11.4013373,6.9007602 L14.2628544,6.9007602 L12.8320959,3.14699941 Z M56.1543295,0.0900937991 C55.7123124,0.0900937991 55.5400518,0.104696429 55.3378486,0.20638383 C55.0756691,0.33709949 54.8959229,0.63472763 54.8959229,0.990500785 C54.8959229,1.34627394 55.0756691,1.64399058 55.3378486,1.77470624 C55.5400518,1.87630514 55.7123124,1.89081927 56.1543295,1.89081927 L57.7348918,1.89081927 L57.7348918,9.12248391 C57.7348918,9.59445859 57.7498631,9.76145958 57.87721,10.0082883 C58.0344994,10.2914908 58.3716264,10.48752 58.7836096,10.48752 C59.1955929,10.48752 59.5327199,10.2914908 59.6900093,10.0082883 C59.8173562,9.76145958 59.8323275,9.59445859 59.8323275,9.12248391 L59.8323275,1.89081927 L61.4127985,1.89081927 C61.8548155,1.89081927 62.0270762,1.87630514 62.2292794,1.77470624 C62.4914588,1.64399058 62.6712964,1.34627394 62.6712964,0.990500785 C62.6712964,0.63472763 62.4914588,0.33709949 62.2292794,0.20638383 C62.0270762,0.104696429 61.8548155,0.0900937991 61.4127985,0.0900937991 L56.1543295,0.0900937991 Z M30.5146029,0.0900937991 C30.0726772,0.0900937991 29.9003252,0.104696429 29.6981221,0.20638383 C29.4359426,0.33709949 29.256105,0.63472763 29.256105,0.990500785 C29.256105,1.34627394 29.4359426,1.64399058 29.6981221,1.77470624 C29.9003252,1.87630514 30.0726772,1.89081927 30.5146029,1.89081927 L32.095074,1.89081927 L32.095074,9.12248391 C32.095074,9.59445859 32.1101365,9.76145958 32.2374835,10.0082883 C32.3947729,10.2914908 32.7318086,10.48752 33.1438831,10.48752 C33.5557751,10.48752 33.8929021,10.2914908 34.0501915,10.0082883 C34.1775384,9.76145958 34.1925096,9.59445859 34.1925096,9.12248391 L34.1925096,1.89081927 L35.773072,1.89081927 C36.2149977,1.89081927 36.3873497,1.87630514 36.5896441,1.77470624 C36.8518236,1.64399058 37.0315699,1.34627394 37.0315699,0.990500785 C37.0315699,0.63472763 36.8518236,0.33709949 36.5896441,0.20638383 C36.3873497,0.104696429 36.2149977,0.0900937991 35.773072,0.0900937991 L30.5146029,0.0900937991 Z M20.9617586,0.0900937991 L23.8755838,0.0900937991 C26.0554526,0.0900937991 27.3438017,1.52053199 27.3438017,3.24859831 C27.3438017,4.48291876 26.6396965,5.49935027 25.4112324,5.97867053 L27.006766,8.67236892 C27.2464886,9.07894152 27.3288304,9.2459425 27.3438017,9.48560263 C27.3588642,9.80509046 27.171541,10.1390039 26.8270197,10.3277761 C26.6471821,10.4294635 26.4599502,10.48752 26.2727183,10.48752 C25.7109313,10.48752 25.4936656,10.1172327 25.2239092,9.65977217 L23.2464261,6.31258399 L21.7857251,6.31258399 L21.7857251,9.12248391 C21.7857251,9.59445859 21.7706625,9.76145958 21.6433156,10.0082883 C21.4861175,10.2914908 21.1489905,10.48752 20.7370073,10.48752 C20.325024,10.48752 19.987897,10.2914908 19.8306989,10.0082883 C19.703352,9.76145958 19.6882894,9.59445859 19.6882894,9.12248391 L19.6882894,1.32450275 C19.6882894,1.02687461 19.6882894,0.656498823 19.9804114,0.373384812 C20.2726246,0.0900937991 20.6546654,0.0900937991 20.9617586,0.0900937991 Z M21.7857251,1.89081927 L21.7857251,4.61354592 L23.7632994,4.61354592 C24.6771847,4.61354592 25.2614286,4.06174352 25.2614286,3.25585538 C25.2614286,2.44262166 24.6771847,1.89081927 23.7632994,1.89081927 L21.7857251,1.89081927 Z M1.32422534,0.0900937991 C0.882299591,0.0900937991 0.709947638,0.104696429 0.507744472,0.20638383 C0.245565018,0.33709949 0.0657274398,0.63472763 0.0657274398,0.990500785 C0.0657274398,1.34627394 0.245565018,1.64399058 0.507744472,1.77470624 C0.709947638,1.87630514 0.882299591,1.89081927 1.32422534,1.89081927 L2.9046964,1.89081927 L2.9046964,9.12248391 C2.9046964,9.59445859 2.91975894,9.76145958 3.04710585,10.0082883 C3.20430398,10.2914908 3.54143097,10.48752 3.9535055,10.48752 C4.36539746,10.48752 4.70252445,10.2914908 4.85981387,10.0082883 C4.98716078,9.76145958 5.00213203,9.59445859 5.00213203,9.12248391 L5.00213203,1.89081927 L6.58269438,1.89081927 C7.02462013,1.89081927 7.19697208,1.87630514 7.39926653,1.77470624 C7.6613547,1.64399058 7.84119228,1.34627394 7.84119228,0.990500785 C7.84119228,0.63472763 7.6613547,0.33709949 7.39926653,0.20638383 C7.19697208,0.104696429 7.02462013,0.0900937991 6.58269438,0.0900937991 L1.32422534,0.0900937991 Z" id="path-17"></path>
        <path d="M0.0743087196,0.613659457 C0.0743087196,0.953165919 0.358254812,1.22723166 0.710091232,1.22723166 C1.06192765,1.22723166 1.34587374,0.953165919 1.34587374,0.613659457 C1.34587374,0.274065741 1.06192765,0 0.710091232,0 C0.358254812,0 0.0743087196,0.274065741 0.0743087196,0.613659457 Z M3.47081384,0.814082572 C2.87308969,1.39083346 2.85184571,2.04942888 2.85184571,3.1620084 C2.85184571,4.27467517 2.87308969,4.93318333 3.47081384,5.51002148 C3.8777038,5.90685401 4.39054245,6.12359368 5.09005689,6.12359368 C5.74699298,6.12359368 6.21752447,5.93948711 6.67530958,5.49771862 C7.12459709,5.06415203 7.23479457,4.52003424 7.23479457,3.69382332 L7.23479457,3.63248356 C7.23479457,3.46469355 7.23479457,3.25606853 7.06954355,3.09656768 C6.90420213,2.93706682 6.68796556,2.93706682 6.51421695,2.93706682 L5.68769064,2.93706682 C5.43755412,2.93706682 5.34435182,2.94526873 5.22565674,3.00250755 C5.07722011,3.07615017 4.97552022,3.24786662 4.97552022,3.44427604 C4.97552022,3.6405982 5.07722011,3.81240191 5.22565674,3.88194358 C5.34435182,3.9391824 5.43755412,3.95148526 5.68769064,3.95148526 L6.11157579,3.95148526 C6.11157579,4.35241874 6.05643185,4.59777782 5.84019528,4.81460474 C5.65803948,4.99871131 5.39940536,5.10908799 5.09005689,5.10908799 C4.76787164,5.10908799 4.50083033,4.98640845 4.33124011,4.79820094 C4.10659636,4.55284186 4.03879643,4.27467517 4.03879643,3.1620084 C4.03879643,2.12307151 4.08535238,1.80398255 4.33548891,1.52581586 C4.50923752,1.33760834 4.74237887,1.2149288 5.05181773,1.2149288 C5.46720528,1.2149288 5.75124178,1.40715002 5.94189517,1.8162854 C6.02244148,1.98398816 6.11582458,2.13118616 6.23442925,2.22123259 C6.31072677,2.27847141 6.43791943,2.31939367 6.57351929,2.31939367 C6.72620472,2.31939367 6.87030216,2.27437045 6.98474844,2.16399377 C7.09485552,2.05754353 7.14159227,1.93076304 7.14159227,1.73033992 C7.14159227,1.5012974 7.0186484,1.08814831 6.62441443,0.72403614 C6.24717564,0.368125871 5.79788813,0.200423116 5.07722011,0.200423116 C4.40337923,0.200423116 3.8777038,0.417250039 3.47081384,0.814082572 Z M19.076097,0.310887053 C18.9574923,0.384529678 18.8514532,0.523613024 18.7751557,0.662696371 L17.2662005,3.43607414 L15.7572453,0.662696371 C15.6808574,0.523613024 15.5749087,0.384529678 15.4562137,0.310887053 C15.350265,0.24134538 15.2443163,0.216826923 15.1043773,0.216826923 C14.943375,0.216826923 14.8119336,0.269964789 14.7059849,0.372226822 C14.5618874,0.511310169 14.5278971,0.674999226 14.5278971,0.924459256 L14.5278971,5.33821777 C14.5278971,5.60408161 14.5363947,5.69814174 14.6084434,5.83722508 C14.6974873,5.99681319 14.8882311,6.10718987 15.1213724,6.10718987 C15.3544234,6.10718987 15.5452576,5.99681319 15.6343015,5.83722508 C15.7062598,5.69814174 15.7148478,5.60408161 15.7148478,5.33821777 L15.7148478,2.69973514 L16.6982179,4.56915841 C16.8465642,4.85142606 16.9864128,4.97000464 17.2662005,4.97000464 C17.5459882,4.97000464 17.6858369,4.85142606 17.8341831,4.56915841 L18.8175532,2.69973514 L18.8175532,5.33821777 C18.8175532,5.60408161 18.8260508,5.69814174 18.8980995,5.83722508 C18.9871435,5.99681319 19.1778872,6.10718987 19.4110286,6.10718987 C19.6441699,6.10718987 19.8349137,5.99681319 19.9238672,5.83722508 C19.9960064,5.69814174 20.0044136,5.60408161 20.0044136,5.33821777 L20.0044136,0.924459256 C20.0044136,0.674999226 19.9705136,0.511310169 19.8264161,0.372226822 C19.7203771,0.269964789 19.589026,0.216826923 19.4280238,0.216826923 C19.2880847,0.216826923 19.182136,0.24134538 19.076097,0.310887053 Z M9.64783916,0.249547284 C9.47409055,0.249547284 9.25794438,0.249547284 9.09260296,0.409048135 C8.92726154,0.568636241 8.92726154,0.77726126 8.92726154,0.944964015 L8.92726154,5.37914003 C8.92726154,5.54684279 8.92726154,5.75538055 9.09260296,5.91496866 C9.25794438,6.07446951 9.47409055,6.07446951 9.64783916,6.07446951 L12.2335476,6.07446951 C12.4835937,6.07446951 12.5811352,6.06626761 12.6955815,6.00902879 C12.8439277,5.93538616 12.9456276,5.76777066 12.9456276,5.56726029 C12.9456276,5.36683718 12.8439277,5.19913442 12.6955815,5.1254918 C12.5811352,5.06816573 12.4835937,5.06005108 12.2335476,5.06005108 L10.1141219,5.06005108 L10.1141219,3.64469916 L11.8266576,3.64469916 C12.0767037,3.64469916 12.1741548,3.63649725 12.2886915,3.57925844 C12.4369473,3.50561581 12.5387376,3.33791306 12.5387376,3.13748994 C12.5387376,2.93706682 12.4369473,2.76936407 12.2886915,2.69572144 C12.1741548,2.63848263 12.0767037,2.63028072 11.8266576,2.63028072 L10.1141219,2.63028072 L10.1141219,1.26405297 L12.2335476,1.26405297 C12.4835937,1.26405297 12.5811352,1.25585107 12.6955815,1.198525 C12.8439277,1.12496963 12.9456276,0.957179616 12.9456276,0.756843755 C12.9456276,0.556333385 12.8439277,0.38863063 12.6955815,0.314988005 C12.5811352,0.257749187 12.4835937,0.249547284 12.2335476,0.249547284 L9.64783916,0.249547284 Z M0.23115255,2.15570461 C0.171850214,2.2702695 0.159013428,2.37253154 0.159013428,2.63028072 L0.159013428,5.37914003 C0.159013428,5.63680197 0.171850214,5.739064 0.23115255,5.85354163 C0.311698863,6.00902879 0.485447475,6.10718987 0.710091232,6.10718987 C0.934825388,6.10718987 1.108574,6.00902879 1.18912031,5.85354163 C1.24842265,5.739064 1.26116904,5.63680197 1.26116904,5.37914003 L1.26116904,2.63028072 C1.26116904,2.37253154 1.24842265,2.2702695 1.18912031,2.15570461 C1.108574,2.00030471 0.934825388,1.90214363 0.710091232,1.90214363 C0.485447475,1.90214363 0.311698863,2.00030471 0.23115255,2.15570461 Z" id="path-19"></path>
        <path d="M15.4198683,0.0207792468 C15.4199599,0.0207792468 15.4200516,0.0207792468 15.4202348,0.0207792468 C15.8686465,0.0207792468 16.2321395,0.379266426 16.2321395,0.821774038 C16.2325975,2.67654768 15.4074099,4.07679788 14.2992512,5.16951522 C13.5020034,5.95578385 12.5584608,6.58250401 11.6694238,7.10577965 C11.2842202,7.33254447 10.7854251,7.20859175 10.5554939,6.82878325 C10.3255626,6.44888442 10.4523454,5.95695833 10.8365413,5.73082592 C11.7565412,5.18875861 12.4888402,4.65780369 13.058172,4.11600741 L3.22883952,4.11600741 C4.53440939,5.36791186 6.51300912,6.34498818 8.5585729,7.35314303 C12.3296288,9.21234355 16.2292081,11.1348756 16.2309486,15.1645136 C16.2312234,15.1655978 16.2312234,15.1665012 16.2314982,15.1676757 C16.2316814,17.02263 15.4067687,18.4231512 14.2986099,19.5158686 C13.501179,20.3020469 12.5575447,20.9290381 11.6685077,21.452404 C11.2833042,21.6790785 10.7847839,21.5549451 10.5551274,21.1753173 C10.3253794,20.7952378 10.4517042,20.3041248 10.8359917,20.0769083 C11.8754459,19.4651853 12.6772739,18.8662009 13.2715225,18.2512256 L3.01777911,18.2512256 C4.31501282,19.6060325 6.3996924,20.6351472 8.55884772,21.6994964 C12.3308197,23.5591486 16.2318646,25.4822228 16.2314982,29.513758 C16.2314982,29.7348311 16.1404418,29.935125 15.9935056,30.080128 C15.8464779,30.2250407 15.6433872,30.3147528 15.4191355,30.3147528 C14.9705405,30.3149335 14.6068644,29.9564463 14.6071392,29.514029 C14.6071392,28.9486528 14.4927232,28.432153 14.285327,27.9548628 L2.00095162,27.9551338 C1.78695981,28.4484151 1.68216246,28.9635597 1.68243728,29.5142097 C1.68216246,29.7354635 1.59138083,29.9354864 1.44435307,30.0804894 C1.29741692,30.2254924 1.09432624,30.3152045 0.870074554,30.3152045 C0.421479577,30.3153852 0.0578034369,29.9568077 0.0580782551,29.5144808 C0.0583530734,26.3638952 2.53721362,24.5266484 4.69746821,23.2779964 C5.0845039,23.054484 5.58192492,23.1825022 5.80892479,23.5639369 C6.03574144,23.9453716 5.90694329,24.4362135 5.51889993,24.6598163 C4.53202763,25.2297097 3.75493325,25.7862322 3.16389081,26.3536863 L13.1277926,26.3532346 C11.8420096,25.1098225 9.8707384,24.1369924 7.83222829,23.1321803 C4.01014779,21.2480447 0.0583530734,19.2997644 0.0580782551,15.1683984 C0.0580782551,15.1670433 0.0583530734,15.1658688 0.0583530734,15.1645136 C0.0603684071,12.015735 2.53904574,10.1795723 4.69746821,8.93146234 C5.0845039,8.70785958 5.58210813,8.83569712 5.80892479,9.21740284 C6.03564983,9.59901823 5.90446993,10.0903119 5.51889993,10.3131919 C4.48750707,10.9094659 3.68512941,11.4909235 3.08483477,12.0850292 L13.206757,12.0845775 C11.9235391,10.8038532 9.91251077,9.81177965 7.83149544,8.78591727 C4.00968976,6.90151062 0.0576202247,4.95341106 0.0573454065,0.822045072 C0.0573454065,0.379898838 0.420746728,0.0215020032 0.869433311,0.0213213141 C1.31830311,0.0213213141 1.68188764,0.379898838 1.68179603,0.822316106 C1.68188764,1.44036318 1.81306755,2.00013802 2.04785393,2.51474058 L14.248135,2.51501162 C14.490433,1.98197877 14.6066812,1.42337841 14.6066812,0.822316106 C14.6062231,0.380079527 14.9703573,0.0215020032 15.4198683,0.0207792468 Z M1.68216246,15.1687598 C1.68243728,15.7035996 1.78118863,16.1938091 1.95917925,16.649778 L14.3351607,16.649778 C14.5163576,16.1806188 14.6066812,15.6907706 14.6064063,15.1681274 C14.6064063,15.1676757 14.6066812,15.1670433 14.6066812,15.1665012 C14.6066812,14.6314808 14.5028915,14.1413616 14.3158319,13.686025 L1.96953073,13.6862961 C1.77743278,14.1564491 1.68216246,14.6460262 1.68216246,15.1679467 C1.68216246,15.1683984 1.68188764,15.1685791 1.68216246,15.1687598 Z" id="path-21"></path>
        <path d="M15.4528175,0.0207792468 C15.4529097,0.0207792468 15.4530018,0.0207792468 15.453186,0.0207792468 C15.9042233,0.0207792468 16.2697699,0.379266426 16.2697699,0.821774038 C16.2701384,2.67654768 15.4403809,4.07679788 14.3259613,5.16951522 C13.5241172,5.95578385 12.575336,6.58250401 11.6812762,7.10577965 C11.2938042,7.33254447 10.7922832,7.20859175 10.5610528,6.82878325 C10.3298225,6.44888442 10.4573216,5.95695833 10.8436881,5.73082592 C11.7688857,5.18875861 12.505322,4.65780369 13.0777783,4.11600741 L3.19300499,4.11600741 C4.50585882,5.36791186 6.49563709,6.34498818 8.55284985,7.35314303 C12.3452112,9.21234355 16.2668219,11.1348756 16.2685723,15.1645136 C16.2688487,15.1655978 16.2688487,15.1665012 16.2690329,15.1676757 C16.2693093,17.02263 15.439736,18.4231512 14.3252243,19.5158686 C13.5233803,20.3020469 12.5744148,20.9290381 11.6803549,21.452404 C11.2929751,21.6790785 10.7916383,21.5549451 10.5606843,21.1753173 C10.3295462,20.7952378 10.4566768,20.3041248 10.8431354,20.0769083 C11.8884622,19.4651853 12.6947282,18.8662009 13.2924263,18.2512256 L2.98075214,18.2512256 C4.28531486,19.6060325 6.38177228,20.6351472 8.5530341,21.6994964 C12.3464088,23.5591486 16.2694935,25.4822228 16.2690329,29.513758 C16.2690329,29.7348311 16.1775541,29.935125 16.0296957,30.080128 C15.8818373,30.2250407 15.6775992,30.3147528 15.4521727,30.3147528 C15.0009511,30.3149335 14.6353125,29.9564463 14.6354967,29.514029 C14.6354967,28.9486528 14.5205264,28.432153 14.3118664,27.9548628 L1.95817986,27.9551338 C1.74288694,28.4484151 1.63758963,28.9635597 1.637866,29.5142097 C1.63758963,29.7354635 1.54629511,29.9354864 1.39843669,30.0804894 C1.25067039,30.2254924 1.0464323,30.3152045 0.820913659,30.3152045 C0.369692124,30.3153852 0.00405343968,29.9568077 0.00432981057,29.5144808 C0.00451405783,26.3638952 2.49747159,24.5266484 4.66993101,23.2779964 C5.05915334,23.054484 5.55929252,23.1825022 5.78757488,23.5639369 C6.0157651,23.9453716 5.88623928,24.4362135 5.49600359,24.6598163 C4.50355573,25.2297097 3.72207099,25.7862322 3.12768933,26.3536863 L13.1477922,26.3532346 C11.854745,25.1098225 9.87242871,24.1369924 7.82230947,23.1321803 C3.97863529,21.2480447 0.00451405783,19.2997644 0.00432981057,15.1683984 C0.00432981057,15.1670433 0.00451405783,15.1658688 0.00451405783,15.1645136 C0.0066329013,12.015735 2.49931406,10.1795723 4.66993101,8.93146234 C5.05915334,8.70785958 5.55956889,8.83569712 5.78757488,9.21740284 C6.01558086,9.59901823 5.88375194,10.0903119 5.49600359,10.3131919 C4.45869153,10.9094659 3.65187278,11.4909235 3.04818664,12.0850292 L13.2272949,12.0845775 C11.9368271,10.8038532 9.91443709,9.81177965 7.82166461,8.78591727 C3.9782668,6.90151062 0.00386919242,4.95341106 0.00359282154,0.822045072 C0.00359282154,0.379898838 0.369047258,0.0215020032 0.820268794,0.0213213141 C1.27158245,0.0213213141 1.63731326,0.379898838 1.63712901,0.822316106 C1.63731326,1.44036318 1.7692343,2.00013802 2.00534716,2.51474058 L14.2744642,2.51501162 C14.5182233,1.98197877 14.6351282,1.42337841 14.6351282,0.822316106 C14.6345755,0.380079527 15.0007669,0.0215020032 15.4528175,0.0207792468 Z M1.63758963,15.1687598 C1.637866,15.7035996 1.73717527,16.1938091 1.91617149,16.649778 L14.3619817,16.649778 C14.5442943,16.1806188 14.6351282,15.6907706 14.6348518,15.1681274 C14.6348518,15.1676757 14.6351282,15.1670433 14.6351282,15.1665012 C14.6351282,14.6314808 14.53066,14.1413616 14.3425436,13.686025 L1.92658146,13.6862961 C1.73339821,14.1564491 1.63758963,14.6460262 1.63758963,15.1679467 C1.63758963,15.1683984 1.63731326,15.1685791 1.63758963,15.1687598 Z" id="path-23"></path>
        <path d="M15.4038373,0.0207792468 C15.4039289,0.0207792468 15.4040205,0.0207792468 15.4042037,0.0207792468 C15.8527071,0.0207792468 16.2162,0.379266426 16.2162,0.821774038 C16.2165664,2.67654768 15.3914705,4.07679788 14.2832201,5.16951522 C13.4858808,5.95578385 12.5425213,6.58250401 11.6534843,7.10577965 C11.2681892,7.33254447 10.7694857,7.20859175 10.5395544,6.82878325 C10.3096231,6.44888442 10.4364059,5.95695833 10.8205102,5.73082592 C11.7405101,5.18875861 12.4728091,4.65780369 13.0421409,4.11600741 L3.21290007,4.11600741 C4.51828672,5.36791186 6.49697806,6.34498818 8.54254184,7.35314303 C12.3136894,9.21234355 16.213177,11.1348756 16.2150091,15.1645136 C16.2152839,15.1655978 16.2152839,15.1665012 16.2154672,15.1676757 C16.215742,17.02263 15.3907376,18.4231512 14.2825788,19.5158686 C13.4852395,20.3020469 12.5416053,20.9290381 11.6524767,21.452404 C11.2672731,21.6790785 10.7688444,21.5549451 10.5390964,21.1753173 C10.3093483,20.7952378 10.4356731,20.3041248 10.8200522,20.0769083 C11.8595064,19.4651853 12.6612428,18.8662009 13.2554915,18.2512256 L3.00174805,18.2512256 C4.29898176,19.6060325 6.38375294,20.6351472 8.54281666,21.6994964 C12.3147886,23.5591486 16.2159252,25.4822228 16.2154672,29.513758 C16.2154672,29.7348311 16.1245023,29.935125 15.9774746,30.080128 C15.8304468,30.2250407 15.6273561,30.3147528 15.403196,30.3147528 C14.9545095,30.3149335 14.5908333,29.9564463 14.5911081,29.514029 C14.5911081,28.9486528 14.4767837,28.432153 14.269296,27.9548628 L1.98501216,27.9551338 C1.77092875,28.4484151 1.666223,28.9635597 1.66640621,29.5142097 C1.666223,29.7354635 1.57544137,29.9354864 1.42841362,30.0804894 C1.28147746,30.2254924 1.07829518,30.3152045 0.854135096,30.3152045 C0.405448513,30.3153852 0.0418639788,29.9568077 0.042047191,29.5144808 C0.0423220093,26.3638952 2.52118255,24.5266484 4.68152875,23.2779964 C5.06856444,23.054484 5.56589385,23.1825022 5.79289372,23.5639369 C6.01980198,23.9453716 5.89100383,24.4362135 5.50296048,24.6598163 C4.51608817,25.2297097 3.73899379,25.7862322 3.14785975,26.3536863 L13.1116699,26.3532346 C11.8259786,25.1098225 9.85479894,24.1369924 7.81619722,23.1321803 C3.99411672,21.2480447 0.0423220093,19.2997644 0.042047191,15.1683984 C0.042047191,15.1670433 0.0423220093,15.1658688 0.0423220093,15.1645136 C0.044337343,12.015735 2.52310628,10.1795723 4.68152875,8.93146234 C5.06856444,8.70785958 5.56616867,8.83569712 5.79289372,9.21740284 C6.01961877,9.59901823 5.88843886,10.0903119 5.50296048,10.3131919 C4.47147601,10.9094659 3.66909835,11.4909235 3.06889531,12.0850292 L13.1908176,12.0845775 C11.907508,10.8038532 9.89657132,9.81177965 7.81555598,8.78591727 C3.9937503,6.90151062 0.0415891606,4.95341106 0.0414059484,0.822045072 C0.0414059484,0.379898838 0.40480727,0.0215020032 0.853493853,0.0213213141 C1.30227204,0.0213213141 1.66594818,0.379898838 1.66567336,0.822316106 C1.66594818,1.44036318 1.79712809,2.00013802 2.03182287,2.51474058 L14.2320123,2.51501162 C14.474402,1.98197877 14.5906501,1.42337841 14.5906501,0.822316106 C14.5901921,0.380079527 14.9542346,0.0215020032 15.4038373,0.0207792468 Z M1.666223,15.1687598 C1.66640621,15.7035996 1.76524917,16.1938091 1.94323979,16.649778 L14.3191297,16.649778 C14.5003265,16.1806188 14.5906501,15.6907706 14.5904669,15.1681274 C14.5904669,15.1676757 14.5906501,15.1670433 14.5906501,15.1665012 C14.5906501,14.6314808 14.4867688,14.1413616 14.2998008,13.686025 L1.95349967,13.6862961 C1.76149332,14.1564491 1.666223,14.6460262 1.666223,15.1679467 C1.666223,15.1683984 1.66594818,15.1685791 1.666223,15.1687598 Z" id="path-25"></path>
    </defs>
    <g id="Website" stroke="none" stroke-width="1" fill="none" fill-rule="evenodd">
        <g id="Tartuit_team-page" transform="translate(-689.000000, -40.000000)">
            <g id="Group-4" transform="translate(689.000000, 40.000000)">
                <g id="logo">
                    <polygon id="Fill-1" fill="#000000" points="3.76289593 46.4629121 17.560181 46.4629121 17.560181 42.7458791 3.76289593 42.7458791"></polygon>
                    <polygon id="Fill-2" fill="#000000" points="45.1547511 46.4629121 58.9520362 46.4629121 58.9520362 42.7458791 45.1547511 42.7458791"></polygon>
                    <polygon id="Fill-3" fill="#000000" points="24.4588235 46.4629121 38.2561086 46.4629121 38.2561086 42.7458791 24.4588235 42.7458791"></polygon>
                    <g id="Group-6" transform="translate(23.831674, 29.736264)">
                        <mask id="mask-2" fill="white">
                            <use xlink:href="#path-1"></use>
                        </mask>
                        <g id="Clip-5"></g>
                        <polygon id="Fill-4" fill="#0065AC" mask="url(#mask-2)" points="-1.05471895 4.68977185 16.0479431 4.68977185 16.0479431 -0.983717097 -1.05471895 -0.983717097"></polygon>
                    </g>
                    <g id="Group-9" transform="translate(3.135747, 29.736264)">
                        <mask id="mask-4" fill="white">
                            <use xlink:href="#path-3"></use>
                        </mask>
                        <g id="Clip-8"></g>
                        <polygon id="Fill-7" fill="#0065AC" mask="url(#mask-4)" points="-1.00051478 4.68977185 16.1021473 4.68977185 16.1021473 -0.983717097 -1.00051478 -0.983717097"></polygon>
                    </g>
                    <g id="Group-12" transform="translate(44.527602, 29.736264)">
                        <mask id="mask-6" fill="white">
                            <use xlink:href="#path-5"></use>
                        </mask>
                        <g id="Clip-11"></g>
                        <polygon id="Fill-10" fill="#0065AC" mask="url(#mask-6)" points="-1.01667446 4.68977185 16.0859876 4.68977185 16.0859876 -0.983717097 -1.01667446 -0.983717097"></polygon>
                    </g>
                    <g id="Group-15">
                        <mask id="mask-8" fill="white">
                            <use xlink:href="#path-7"></use>
                        </mask>
                        <g id="Clip-14"></g>
                        <polygon id="Fill-13" fill="#000000" mask="url(#mask-8)" points="-1.69964253 17.6371344 31.7823603 -1.68593453 33.6941885 1.62415346 0.212185757 20.9472224"></polygon>
                    </g>
                    <g id="Group-18" transform="translate(30.730317, 0.000000)">
                        <mask id="mask-10" fill="white">
                            <use xlink:href="#path-9"></use>
                        </mask>
                        <g id="Clip-17"></g>
                        <polygon id="Fill-16" fill="#000000" mask="url(#mask-10)" points="33.7175563 17.6371344 0.235553554 -1.68593453 -1.67627473 1.62415346 31.8057281 20.9472224"></polygon>
                    </g>
                    <g id="Group-21" transform="translate(0.000000, 23.541209)">
                        <mask id="mask-12" fill="white">
                            <use xlink:href="#path-11"></use>
                        </mask>
                        <g id="Clip-20"></g>
                        <polygon id="Fill-19" fill="#000000" mask="url(#mask-12)" points="-1.00289198 2.86536779 63.7513693 2.86536779 63.7513693 -1.05545151 -1.00289198 -1.05545151"></polygon>
                    </g>
                    <g id="Group-24" transform="translate(11.288688, 19.204670)">
                        <mask id="mask-14" fill="white">
                            <use xlink:href="#path-13"></use>
                        </mask>
                        <g id="Clip-23"></g>
                        <polygon id="Fill-22" fill="#000000" mask="url(#mask-14)" points="-0.975832993 2.87642596 41.1779547 2.87642596 41.1779547 -1.04439334 -0.975832993 -1.04439334"></polygon>
                    </g>
                    <g id="Group-27" transform="translate(0.000000, 64.428571)">
                        <mask id="mask-16" fill="white">
                            <use xlink:href="#path-15"></use>
                        </mask>
                        <g id="Clip-26"></g>
                        <polygon id="Fill-25" fill="#000000" mask="url(#mask-16)" points="-1.00289198 2.90244519 63.7513693 2.90244519 63.7513693 -1.01837411 -1.00289198 -1.01837411"></polygon>
                    </g>
                    <g id="Group-30" transform="translate(0.000000, 70.004121)">
                        <mask id="mask-18" fill="white">
                            <use xlink:href="#path-17"></use>
                        </mask>
                        <g id="Clip-29"></g>
                        <polygon id="Fill-28" fill="#000000" mask="url(#mask-18)" points="-1.0043518 11.5537775 63.7413756 11.5537775 63.7413756 -1.00519192 -1.0043518 -1.00519192"></polygon>
                    </g>
                    <g id="Group-33" transform="translate(21.323077, 9.912088)">
                        <mask id="mask-20" fill="white">
                            <use xlink:href="#path-19"></use>
                        </mask>
                        <g id="Clip-32"></g>
                        <polygon id="Fill-31" fill="#000000" mask="url(#mask-20)" points="-0.985358934 7.14621401 21.0641716 7.14621401 21.0641716 -1.02262034 -0.985358934 -1.02262034"></polygon>
                    </g>
                    <g id="Group-36" transform="translate(2.508597, 29.736264)">
                        <mask id="mask-22" fill="white">
                            <use xlink:href="#path-21"></use>
                        </mask>
                        <g id="Clip-35"></g>
                        <polygon id="Fill-34" fill="#000000" mask="url(#mask-22)" points="-1.01646107 31.3740427 17.3059459 31.3740427 17.3059459 -1.03796855 -1.01646107 -1.03796855"></polygon>
                    </g>
                    <g id="Group-39" transform="translate(23.204525, 29.736264)">
                        <mask id="mask-24" fill="white">
                            <use xlink:href="#path-23"></use>
                        </mask>
                        <g id="Clip-38"></g>
                        <polygon id="Fill-37" fill="#000000" mask="url(#mask-24)" points="-1.07628036 31.3740427 17.3496431 31.3740427 17.3496431 -1.03796855 -1.07628036 -1.03796855"></polygon>
                    </g>
                    <g id="Group-42" transform="translate(43.900452, 29.736264)">
                        <mask id="mask-26" fill="white">
                            <use xlink:href="#path-25"></use>
                        </mask>
                        <g id="Clip-41"></g>
                        <polygon id="Fill-40" fill="#000000" mask="url(#mask-26)" points="-1.03249213 31.3740427 17.2899149 31.3740427 17.2899149 -1.03796855 -1.03249213 -1.03796855"></polygon>
                    </g>
                </g>
            </g>
        </g>
    </g>
</svg>