<svg version="1.1" xmlns="http://www.w3.org/2000/svg" xmlns:xlink="http://www.w3.org/1999/xlink" style="" xml:space="preserve" width="574" height="168"><rect id="backgroundrect" width="100%" height="100%" x="0" y="0" fill="none" stroke="none"/>
<style type="text/css">
	.st0{fill:#FFFFFF;}
	.st1{fill:#2A5FAA;}
</style>












































<g class="currentLayer" style=""><title>Layer 1</title><path class="st0" d="M-0.0015869140625,167.4984130859375 c0,-55.79999923706055 0,-111.69999694824219 0,-167.5 c191.39999389648438,0 382.70001220703125,0 574.0999755859375,0 c0,55.79999923706055 0,111.69999694824219 0,167.5 C382.698486328125,167.4984130859375 191.3984375,167.4984130859375 -0.0015869140625,167.4984130859375 zM551.198486328125,32.7984619140625 c0.30000001192092896,-0.8999999761581421 0.800000011920929,-1.600000023841858 0.800000011920929,-2.4000000953674316 c0.10000000149011612,-7.400000095367432 0.10000000149011612,-14.800000190734863 0.10000000149011612,-22.200000762939453 c0,-1 -0.20000000298023224,-1.399999976158142 -1.399999976158142,-1.399999976158142 c-29.200000762939453,0 -58.29999923706055,0 -87.5,0 c-0.4000000059604645,0 -0.800000011920929,0 -1.2999999523162842,0.10000000149011612 c-0.4000000059604645,7.5 -0.800000011920929,14.800000190734863 -1.2000000476837158,22.200000762939453 c-0.10000000149011612,0.10000000149011612 -0.20000000298023224,0.10000000149011612 -0.4000000059604645,0.20000000298023224 c-0.8999999761581421,-0.8999999761581421 -1.899999976158142,-1.600000023841858 -2.700000047683716,-2.5999999046325684 c-4.5,-5.400000095367432 -9.899999618530273,-9.699999809265137 -16.200000762939453,-12.699999809265137 c-9.300000190734863,-4.400000095367432 -19.299999237060547,-6 -29.399999618530273,-6.900000095367432 c-5.599999904632568,-0.5 -11.199999809265137,-0.5 -16.799999237060547,-0.5 c-22.200000762939453,-0.10000000149011612 -44.5,0 -66.69999694824219,0 c-2.799999952316284,0 -5.599999904632568,0.4000000059604645 -8.300000190734863,0.699999988079071 c-0.30000001192092896,0 -0.800000011920929,0.4000000059604645 -0.8999999761581421,0.699999988079071 c-0.10000000149011612,0.699999988079071 0.4000000059604645,0.800000011920929 1,0.8999999761581421 c2.200000047683716,0.4000000059604645 4.300000190734863,0.699999988079071 6.5,1.2000000476837158 c5.199999809265137,1.2000000476837158 7.699999809265137,4.300000190734863 7.699999809265137,9.300000190734863 c0,26.200000762939453 0,52.29999923706055 0,78.5 c0,5.099999904632568 -2,7.900000095367432 -6.900000095367432,9.300000190734863 c-2.4000000953674316,0.699999988079071 -5,1.100000023841858 -7.5,1.7000000476837158 c-0.30000001192092896,0.10000000149011612 -0.5,0.4000000059604645 -0.800000011920929,0.699999988079071 c0.30000001192092896,0.30000001192092896 0.5,0.699999988079071 0.800000011920929,0.800000011920929 c0.800000011920929,0.20000000298023224 1.600000023841858,0.30000001192092896 2.4000000953674316,0.30000001192092896 c4.800000190734863,0.10000000149011612 9.600000381469727,0.20000000298023224 14.399999618530273,0.20000000298023224 c5.099999904632568,0 10.199999809265137,-0.10000000149011612 15.300000190734863,-0.10000000149011612 c12.300000190734863,-0.10000000149011612 24.600000381469727,-0.10000000149011612 36.900001525878906,-0.30000001192092896 c7.900000095367432,-0.10000000149011612 15.699999809265137,-0.30000001192092896 23.600000381469727,-0.5 c3.799999952316284,-0.10000000149011612 7.599999904632568,-0.30000001192092896 11.300000190734863,-0.800000011920929 c10.199999809265137,-1.399999976158142 19.399999618530273,-5.300000190734863 27.200000762939453,-12.100000381469727 c10.399999618530273,-9.100000381469727 16.100000381469727,-20.399999618530273 16.600000381469727,-34.29999923706055 c0.20000000298023224,-5.900000095367432 -0.6000000238418579,-11.800000190734863 -2,-17.5 c-0.699999988079071,-2.9000000953674316 -1.5,-5.699999809265137 -1.7999999523162842,-8.600000381469727 c-0.5,-4.699999809265137 1,-9.100000381469727 2.5999999046325684,-13.5 c2.4000000953674316,-6.800000190734863 6.900000095367432,-10 14.199999809265137,-10.100000381469727 c4.599999904632568,0 9.300000190734863,0.10000000149011612 13.899999618530273,-0.10000000149011612 c3.299999952316284,-0.10000000149011612 3.9000000953674316,1.5 3.9000000953674316,3.9000000953674316 c0,27.200000762939453 -0.10000000149011612,54.400001525878906 -0.20000000298023224,81.5999984741211 c0,0.10000000149011612 0,0.20000000298023224 0,0.20000000298023224 c-0.10000000149011612,0.8999999761581421 -0.20000000298023224,1.7999999523162842 -0.4000000059604645,2.700000047683716 c-0.8999999761581421,3.5 -3.5,5.099999904632568 -6.699999809265137,6 c-2.4000000953674316,0.699999988079071 -4.800000190734863,1.2000000476837158 -7.400000095367432,1.7999999523162842 c5.5,2.4000000953674316 41.20000076293945,2.0999999046325684 43.70000076293945,-0.30000001192092896 c-0.6000000238418579,-0.20000000298023224 -1.2000000476837158,-0.4000000059604645 -1.7000000476837158,-0.5 c-2.299999952316284,-0.699999988079071 -4.699999809265137,-1.2000000476837158 -7,-2 c-2.299999952316284,-0.800000011920929 -3.700000047683716,-2.5 -4.300000190734863,-4.800000190734863 c-0.30000001192092896,-1.2999999523162842 -0.5,-2.5999999046325684 -0.5,-3.9000000953674316 c-0.10000000149011612,-5.199999809265137 -0.20000000298023224,-10.399999618530273 -0.20000000298023224,-15.600000381469727 c0,-22.600000381469727 0.10000000149011612,-45.099998474121094 0.10000000149011612,-67.69999694824219 c0,0 0,-0.10000000149011612 0,-0.10000000149011612 c-0.20000000298023224,-1.100000023841858 0.30000001192092896,-1.399999976158142 1.2999999523162842,-1.399999976158142 c5.599999904632568,0 11.199999809265137,0 16.799999237060547,0 c6.5,0 11.199999809265137,3.299999952316284 13.5,9.399999618530273 c0.8999999761581421,2.4000000953674316 1.600000023841858,4.800000190734863 2.299999952316284,7.300000190734863 C548.4984130859375,31.098388671875 549.3984375,32.098388671875 551.198486328125,32.7984619140625 zM82.9984130859375,49.598388671875 c1,2.9000000953674316 2.5999999046325684,3.5 5,1.7999999523162842 c3.200000047683716,-2.200000047683716 6.300000190734863,-4.5 9.5,-6.800000190734863 c9.300000190734863,-6.699999809265137 18.5,-13.5 28.399999618530273,-19.200000762939453 c9.899999618530273,-5.699999809265137 20.399999618530273,-8.699999809265137 31.899999618530273,-8.100000381469727 c6.099999904632568,0.30000001192092896 12,1.600000023841858 17.700000762939453,3.799999952316284 c10.100000381469727,4 19.200000762939453,9.600000381469727 28,15.800000190734863 c9.600000381469727,6.800000190734863 18.299999237060547,14.699999809265137 27,22.700000762939453 c17.600000381469727,16.200000762939453 36.5,30.600000381469727 56.599998474121094,43.400001525878906 c7.400000095367432,4.699999809265137 15.5,6.699999809265137 24.100000381469727,7.400000095367432 c1,0.10000000149011612 1.399999976158142,-0.20000000298023224 1.399999976158142,-1.2999999523162842 c-0.10000000149011612,-4.900000095367432 -0.10000000149011612,-9.699999809265137 -0.10000000149011612,-14.600000381469727 c0,-2.0999999046325684 -1.2000000476837158,-3.4000000953674316 -3.4000000953674316,-3.700000047683716 c-2.700000047683716,-0.30000001192092896 -5.400000095367432,-0.5 -8.100000381469727,-1 c-10.5,-1.899999976158142 -20.200000762939453,-6.099999904632568 -28.799999237060547,-12.399999618530273 c-9.699999809265137,-7.199999809265137 -19.299999237060547,-14.600000381469727 -28.799999237060547,-22.100000381469727 c-10.5,-8.199999809265137 -20.700000762939453,-16.799999237060547 -31.100000381469727,-25 c-9.100000381469727,-7.199999809265137 -18.700000762939453,-13.5 -29.399999618530273,-18.200000762939453 c-6.599999904632568,-2.9000000953674316 -13.399999618530273,-5.099999904632568 -20.700000762939453,-5.599999904632568 c-5.099999904632568,-0.4000000059604645 -10.100000381469727,0.30000001192092896 -15.100000381469727,1.5 c-11.600000381469727,2.799999952316284 -22,8 -31.700000762939453,14.800000190734863 c-8,5.599999904632568 -15.5,11.899999618530273 -22.799999237060547,18.299999237060547 C89.3984375,43.9984130859375 86.19842529296875,46.7984619140625 82.9984130859375,49.598388671875 zM229.8984375,65.598388671875 c-1.7000000476837158,0.10000000149011612 -3.4000000953674316,0.20000000298023224 -4.900000095367432,1.2999999523162842 c-5.199999809265137,3.799999952316284 -10.5,7.599999904632568 -15.699999809265137,11.399999618530273 c-7.199999809265137,5.199999809265137 -14.300000190734863,10.399999618530273 -22.299999237060547,14.300000190734863 c-9.100000381469727,4.5 -18.700000762939453,7.099999904632568 -29,6.800000190734863 c-3.9000000953674316,-0.10000000149011612 -7.699999809265137,-0.5 -11.5,-1.2000000476837158 c-10.699999809265137,-1.899999976158142 -20.600000381469727,-5.800000190734863 -29,-12.699999809265137 c-14.300000190734863,-11.600000381469727 -28.399999618530273,-23.5 -42.5,-35.400001525878906 c-9.100000381469727,-7.599999904632568 -17.899999618530273,-15.5 -27.100000381469727,-22.899999618530273 c-8.699999809265137,-7.099999904632568 -18.299999237060547,-12.899999618530273 -28.799999237060547,-17 c-4.199999809265137,-1.600000023841858 -8.5,-2.700000047683716 -13,-3.299999952316284 c-0.699999988079071,-0.10000000149011612 -1.2999999523162842,-0.10000000149011612 -1.2999999523162842,0.8999999761581421 c0,5.699999809265137 0,11.399999618530273 0,17.200000762939453 c0,0.4000000059604645 0.5,0.8999999761581421 0.800000011920929,1.100000023841858 c1.100000023841858,0.30000001192092896 2.299999952316284,0.6000000238418579 3.5,0.699999988079071 c11.300000190734863,1.7000000476837158 21.899999618530273,5.5 31.299999237060547,11.899999618530273 c8.199999809265137,5.599999904632568 16.299999237060547,11.600000381469727 24.100000381469727,17.799999237060547 c11.100000381469727,8.800000190734863 21.899999618530273,17.899999618530273 32.900001525878906,26.799999237060547 c8.800000190734863,7.099999904632568 17.799999237060547,13.800000190734863 27.799999237060547,19.200000762939453 c8.5,4.599999904632568 17.5,7.5 27.100000381469727,8 c6.300000190734863,0.30000001192092896 12.5,-0.5 18.600000381469727,-2.200000047683716 c9.399999618530273,-2.700000047683716 17.799999237060547,-7.5 25.799999237060547,-12.899999618530273 c11.699999809265137,-7.900000095367432 22.100000381469727,-17.299999237060547 32.400001525878906,-26.799999237060547 C229.9984130859375,67.698486328125 230.59844970703125,66.8984375 229.8984375,65.598388671875 zM6.09844970703125,108.8984375 c0.10000000149011612,0.10000000149011612 0.10000000149011612,0.20000000298023224 0.20000000298023224,0.4000000059604645 c2.4000000953674316,0.30000001192092896 4.699999809265137,0.10000000149011612 7,-0.5 c6.099999904632568,-1.7000000476837158 11.5,-4.599999904632568 16.799999237060547,-8 c12.699999809265137,-8.100000381469727 23.799999237060547,-17.899999618530273 34.20000076293945,-28.700000762939453 c1.2999999523162842,-1.399999976158142 2.5999999046325684,-2.700000047683716 3.799999952316284,-4.199999809265137 c0.30000001192092896,-0.4000000059604645 0.20000000298023224,-1.100000023841858 0.20000000298023224,-1.600000023841858 c0,-0.10000000149011612 -0.5,-0.4000000059604645 -0.699999988079071,-0.4000000059604645 c-1.600000023841858,0.4000000059604645 -3.299999952316284,0.699999988079071 -4.5,2 c-1.7999999523162842,1.7000000476837158 -3.5999999046325684,3.4000000953674316 -5.5,5 c-7.900000095367432,7.099999904632568 -15.699999809265137,14.399999618530273 -23.899999618530273,21.299999237060547 c-7.599999904632568,6.5 -16.200000762939453,11.399999618530273 -26.100000381469727,13.699999809265137 C6.9984130859375,107.9984130859375 6.59844970703125,108.598388671875 6.09844970703125,108.8984375 zM260.8984375,153.9984130859375 c0,0 -0.10000000149011612,-0.10000000149011612 -0.20000000298023224,-0.20000000298023224 c-4,-6 -8,-12 -12.100000381469727,-18 c-0.30000001192092896,-0.4000000059604645 -0.699999988079071,-0.8999999761581421 -1.100000023841858,-0.8999999761581421 c-1.100000023841858,-0.10000000149011612 -2.0999999046325684,0 -3.200000047683716,0 c0,8 0,15.800000190734863 0,23.700000762939453 c1.100000023841858,0 2.0999999046325684,0 3,0 c0,-6.5 0,-13 0,-19.200000762939453 c4.099999904632568,6 8.399999618530273,12.199999809265137 12.600000381469727,18.399999618530273 c0.20000000298023224,0.30000001192092896 0.5,0.699999988079071 0.800000011920929,0.800000011920929 c1.100000023841858,0.10000000149011612 2.0999999046325684,0 3.200000047683716,0 c0,-8 0,-15.800000190734863 0,-23.700000762939453 c-1.100000023841858,0 -2.0999999046325684,0 -3,0 C260.8984375,141.2984619140625 260.8984375,147.698486328125 260.8984375,153.9984130859375 zM391.098388671875,158.598388671875 c0,-6.5 0,-13 0,-19.200000762939453 c4.099999904632568,6 8.300000190734863,12.199999809265137 12.600000381469727,18.299999237060547 c0.20000000298023224,0.30000001192092896 0.6000000238418579,0.800000011920929 0.8999999761581421,0.800000011920929 c1,0.10000000149011612 2.0999999046325684,0 3.200000047683716,0 c0,-8 0,-15.800000190734863 0,-23.700000762939453 c-1.100000023841858,0 -2.0999999046325684,0 -3,0 c0,6.400000095367432 0,12.699999809265137 0,19 c0,0 -0.10000000149011612,-0.10000000149011612 -0.20000000298023224,-0.20000000298023224 c-4,-6 -8.100000381469727,-12.100000381469727 -12.199999809265137,-18.100000381469727 c-0.20000000298023224,-0.4000000059604645 -0.699999988079071,-0.800000011920929 -1.100000023841858,-0.800000011920929 c-1.100000023841858,-0.10000000149011612 -2.0999999046325684,0 -3.200000047683716,0 c0,8 0,15.800000190734863 0,23.700000762939453 C389.098388671875,158.598388671875 390.098388671875,158.598388671875 391.098388671875,158.598388671875 zM29.2984619140625,153.9984130859375 c0,0 -0.10000000149011612,-0.10000000149011612 -0.20000000298023224,-0.20000000298023224 c-4,-6 -8,-12 -12.100000381469727,-18 c-0.30000001192092896,-0.4000000059604645 -0.699999988079071,-0.8999999761581421 -1.100000023841858,-0.8999999761581421 c-1.100000023841858,-0.10000000149011612 -2.0999999046325684,0 -3.200000047683716,0 c0,8 0,15.800000190734863 0,23.700000762939453 c1.100000023841858,0 2.0999999046325684,0 3,0 c0,-6.5 0,-13 0,-19.200000762939453 c4.099999904632568,6 8.399999618530273,12.199999809265137 12.600000381469727,18.399999618530273 c0.20000000298023224,0.30000001192092896 0.5,0.699999988079071 0.800000011920929,0.800000011920929 c1.100000023841858,0.10000000149011612 2.0999999046325684,0 3.200000047683716,0 c0,-8 0,-15.800000190734863 0,-23.700000762939453 c-1.100000023841858,0 -2.0999999046325684,0 -3,0 C29.2984619140625,141.2984619140625 29.2984619140625,147.698486328125 29.2984619140625,153.9984130859375 zM218.3984375,158.598388671875 c3.5999999046325684,0 7.099999904632568,0.4000000059604645 10.600000381469727,-0.10000000149011612 c6.5,-0.800000011920929 10,-4.400000095367432 10.899999618530273,-10.300000190734863 c1,-6.5 -2.299999952316284,-11.5 -8.600000381469727,-13 c-1.7999999523162842,-0.4000000059604645 -3.5999999046325684,-0.6000000238418579 -5.5,-0.6000000238418579 c-2.5,0 -4.900000095367432,0.20000000298023224 -7.400000095367432,0.30000001192092896 C218.3984375,142.8984375 218.3984375,150.698486328125 218.3984375,158.598388671875 zM183.8984375,158.598388671875 c1.600000023841858,0.10000000149011612 3.0999999046325684,0.20000000298023224 4.599999904632568,0.20000000298023224 c2,0 4,0 6,-0.30000001192092896 c6.400000095367432,-1 10,-4.400000095367432 10.899999618530273,-10.300000190734863 c0.8999999761581421,-5.5 -1.5,-10.199999809265137 -6.300000190734863,-12.199999809265137 c-4.900000095367432,-2.0999999046325684 -10.100000381469727,-1.399999976158142 -15.199999809265137,-0.8999999761581421 C183.8984375,142.8984375 183.8984375,150.698486328125 183.8984375,158.598388671875 zM436.598388671875,146.598388671875 c0,-7.099999904632568 -4.699999809265137,-12 -11.600000381469727,-12 c-7.599999904632568,0 -12.600000381469727,4.800000190734863 -12.600000381469727,12.199999809265137 c0,7.300000190734863 4.699999809265137,12.100000381469727 11.800000190734863,12.100000381469727 C431.698486328125,158.8984375 436.598388671875,154.098388671875 436.598388671875,146.598388671875 zM480.4984130859375,146.4984130859375 c0,-7.099999904632568 -4.699999809265137,-11.899999618530273 -11.699999809265137,-11.899999618530273 c-7.5,0 -12.5,4.900000095367432 -12.5,12.100000381469727 c0,7.300000190734863 4.699999809265137,12.100000381469727 11.800000190734863,12.100000381469727 C475.698486328125,158.8984375 480.4984130859375,154.098388671875 480.4984130859375,146.4984130859375 zM310.8984375,8.7984619140625 c-0.6000000238418579,-1.399999976158142 -0.800000011920929,-2.299999952316284 -2.299999952316284,-2 c-5.099999904632568,1 -10.100000381469727,2.5 -14.800000190734863,4.699999809265137 c-8.899999618530273,4.099999904632568 -16.700000762939453,9.899999618530273 -23.899999618530273,16.5 c-6.5,6 -12.899999618530273,12.100000381469727 -19.399999618530273,18.200000762939453 c-1.5,1.399999976158142 -3,2.700000047683716 -4.699999809265137,4.199999809265137 c1.899999976158142,0.30000001192092896 3.299999952316284,-0.10000000149011612 4.599999904632568,-1.2999999523162842 c3.200000047683716,-3 6.5,-6 9.800000190734863,-8.899999618530273 c7.099999904632568,-6.199999809265137 14.199999809265137,-12.600000381469727 21.600000381469727,-18.5 c7.400000095367432,-5.900000095367432 15.800000190734863,-10.100000381469727 25.200000762939453,-11.899999618530273 C308.198486328125,9.598388671875 309.4984130859375,9.198486328125 310.8984375,8.7984619140625 zM378.698486328125,144.598388671875 c-4.300000190734863,0 -8.399999618530273,0 -12.699999809265137,0 c0,-3.299999952316284 0,-6.5 0,-9.699999809265137 c-1.2000000476837158,0 -2.200000047683716,0 -3.299999952316284,0 c0,7.900000095367432 0,15.699999809265137 0,23.600000381469727 c1.100000023841858,0 2.200000047683716,0 3.299999952316284,0 c0,-3.700000047683716 0,-7.400000095367432 0,-11.100000381469727 c4.300000190734863,0 8.5,0 12.699999809265137,0 c0,3.700000047683716 0,7.400000095367432 0,11.100000381469727 c1.2000000476837158,0 2.200000047683716,0 3.4000000953674316,0 c0,-7.900000095367432 0,-15.800000190734863 0,-23.600000381469727 c-1.2000000476837158,0 -2.299999952316284,0 -3.4000000953674316,0 C378.698486328125,138.198486328125 378.698486328125,141.3984375 378.698486328125,144.598388671875 zM102.7984619140625,134.9984130859375 c0,8 0,15.699999809265137 0,23.5 c1.100000023841858,0 2.200000047683716,0 3.299999952316284,0 c0,-3.4000000953674316 0,-6.800000190734863 0,-10.199999809265137 c0.800000011920929,0 1.600000023841858,0 2.299999952316284,0 c3.799999952316284,0 5.099999904632568,1.100000023841858 6.099999904632568,4.800000190734863 c0.4000000059604645,1.600000023841858 0.8999999761581421,3.200000047683716 1.399999976158142,4.800000190734863 c0.10000000149011612,0.30000001192092896 0.6000000238418579,0.699999988079071 1,0.699999988079071 c0.8999999761581421,0.10000000149011612 1.7999999523162842,0 2.799999952316284,0 c-0.5,-1.7999999523162842 -1.100000023841858,-3.5 -1.5,-5.199999809265137 c-0.6000000238418579,-2.5 -1.2999999523162842,-5 -3.700000047683716,-6 c1.2000000476837158,-1.100000023841858 2.700000047683716,-1.899999976158142 3.5,-3.200000047683716 c2.299999952316284,-3.5 0.4000000059604645,-7.900000095367432 -4,-9 C110.2984619140625,134.198486328125 106.59844970703125,134.598388671875 102.7984619140625,134.9984130859375 zM97.19842529296875,157.598388671875 c0,-1.899999976158142 0,-3.799999952316284 0,-5.699999809265137 c0,-1.899999976158142 0,-3.799999952316284 0,-5.699999809265137 c-3,0 -5.800000190734863,0 -8.600000381469727,0 c0,0.800000011920929 0,1.600000023841858 0,2.4000000953674316 c1.7999999523162842,0 3.4000000953674316,0 5.199999809265137,0 c0,2.4000000953674316 0,4.699999809265137 0,7.300000190734863 c-1.899999976158142,0.10000000149011612 -3.799999952316284,0.30000001192092896 -5.699999809265137,0.20000000298023224 c-5.099999904632568,-0.20000000298023224 -8.600000381469727,-3.700000047683716 -8.899999618530273,-8.699999809265137 c-0.30000001192092896,-5.199999809265137 2.700000047683716,-9 7.699999809265137,-10 c2.9000000953674316,-0.5 5.800000190734863,-0.30000001192092896 8.699999809265137,0.699999988079071 c0.20000000298023224,-0.5 0.30000001192092896,-0.8999999761581421 0.4000000059604645,-1.2999999523162842 c0.10000000149011612,-0.4000000059604645 0.30000001192092896,-0.800000011920929 0.4000000059604645,-1.2999999523162842 c-5.800000190734863,-1.5 -11.300000190734863,-1.7000000476837158 -16.299999237060547,1.899999976158142 c-3.799999952316284,2.799999952316284 -5,6.800000190734863 -4.400000095367432,11.300000190734863 c0.6000000238418579,4.599999904632568 3.0999999046325684,7.699999809265137 7.5,9.199999809265137 C87.8984375,159.4984130859375 92.59844970703125,158.9984130859375 97.19842529296875,157.598388671875 zM504.2984619140625,135.598388671875 c-5.900000095367432,-1.5 -11.600000381469727,-1.7000000476837158 -16.600000381469727,2.0999999046325684 c-3.9000000953674316,3 -4.900000095367432,7.300000190734863 -4,12.100000381469727 c0.8999999761581421,4.5 3.799999952316284,7.300000190734863 8.199999809265137,8.5 c4.400000095367432,1.2000000476837158 8.800000190734863,0.699999988079071 13.100000381469727,-0.6000000238418579 c0,-3.799999952316284 0,-7.599999904632568 0,-11.399999618530273 c-2.9000000953674316,0 -5.699999809265137,0 -8.5,0 c0,0.800000011920929 0,1.600000023841858 0,2.4000000953674316 c1.7999999523162842,0 3.5,0 5.199999809265137,0 c0,2.200000047683716 0,4.300000190734863 0,6.400000095367432 c0,0.30000001192092896 -0.5,0.8999999761581421 -0.800000011920929,0.8999999761581421 c-1.7000000476837158,0.20000000298023224 -3.299999952316284,0.4000000059604645 -5,0.30000001192092896 c-5.099999904632568,-0.30000001192092896 -8.5,-3.700000047683716 -8.800000190734863,-8.699999809265137 c-0.30000001192092896,-5.199999809265137 2.5999999046325684,-9.100000381469727 7.699999809265137,-10 c2.9000000953674316,-0.5 5.800000190734863,-0.30000001192092896 8.699999809265137,0.699999988079071 C503.698486328125,137.3984375 503.8984375,136.598388671875 504.2984619140625,135.598388671875 zM281.2984619140625,134.8984375 c-1.100000023841858,0 -2.0999999046325684,0.10000000149011612 -3.200000047683716,0 c-0.800000011920929,-0.10000000149011612 -1.2000000476837158,0.30000001192092896 -1.399999976158142,1 c-2.700000047683716,7.300000190734863 -5.5,14.5 -8.199999809265137,21.700000762939453 c-0.10000000149011612,0.30000001192092896 -0.20000000298023224,0.6000000238418579 -0.30000001192092896,1 c1.2000000476837158,0 2.4000000953674316,0 3.5,0 c0.800000011920929,-2.200000047683716 1.600000023841858,-4.300000190734863 2.4000000953674316,-6.5 c0.30000001192092896,-0.699999988079071 0.6000000238418579,-1 1.399999976158142,-0.8999999761581421 c2.4000000953674316,0 4.800000190734863,0.10000000149011612 7.199999809265137,0 c0.8999999761581421,0 1.2999999523162842,0.30000001192092896 1.5,1.100000023841858 c0.6000000238418579,1.899999976158142 1.399999976158142,3.799999952316284 2.0999999046325684,5.599999904632568 c0.10000000149011612,0.30000001192092896 0.5,0.699999988079071 0.800000011920929,0.800000011920929 c1,0.10000000149011612 2,0 3.200000047683716,0 C287.2984619140625,150.698486328125 284.2984619140625,142.7984619140625 281.2984619140625,134.8984375 zM144.09844970703125,158.598388671875 c-0.20000000298023224,-0.5 -0.30000001192092896,-0.8999999761581421 -0.4000000059604645,-1.2000000476837158 c-2.4000000953674316,-6.300000190734863 -4.800000190734863,-12.699999809265137 -7.199999809265137,-19 c-0.4000000059604645,-1.2000000476837158 -0.699999988079071,-2.799999952316284 -1.600000023841858,-3.299999952316284 c-0.8999999761581421,-0.6000000238418579 -2.5,-0.10000000149011612 -3.799999952316284,-0.10000000149011612 c0,0 -0.10000000149011612,0 -0.20000000298023224,0.10000000149011612 c-3,7.800000190734863 -5.900000095367432,15.699999809265137 -8.899999618530273,23.700000762939453 c1,0 1.899999976158142,-0.10000000149011612 2.799999952316284,0 c0.699999988079071,0.10000000149011612 1,-0.30000001192092896 1.2000000476837158,-0.8999999761581421 c0.699999988079071,-2 1.399999976158142,-3.9000000953674316 2.0999999046325684,-5.900000095367432 c0.20000000298023224,-0.6000000238418579 0.5,-0.800000011920929 1.100000023841858,-0.800000011920929 c2.5999999046325684,0 5.099999904632568,0 7.699999809265137,0 c0.6000000238418579,0 0.8999999761581421,0.20000000298023224 1.100000023841858,0.800000011920929 c0.699999988079071,2 1.399999976158142,3.9000000953674316 2.200000047683716,5.800000190734863 c0.10000000149011612,0.30000001192092896 0.5,0.800000011920929 0.800000011920929,0.800000011920929 C141.8984375,158.698486328125 142.8984375,158.598388671875 144.09844970703125,158.598388671875 zM168.09844970703125,147.3984375 c3.5,0 6.800000190734863,0 10.199999809265137,0 c0,-0.8999999761581421 0,-1.600000023841858 0,-2.5 c-3.4000000953674316,0 -6.800000190734863,0 -10.199999809265137,0 c0,-2.5999999046325684 0,-5 0,-7.5 c3.5999999046325684,0 7.199999809265137,0 10.800000190734863,0 c0,-0.8999999761581421 0,-1.7000000476837158 0,-2.5 c-4.800000190734863,0 -9.5,0 -14.199999809265137,0 c0,7.900000095367432 0,15.800000190734863 0,23.600000381469727 c5,0 9.800000190734863,0 14.699999809265137,0 c0,-0.8999999761581421 0,-1.600000023841858 0,-2.5 c-3.799999952316284,0 -7.599999904632568,0 -11.300000190734863,0 C168.09844970703125,153.098388671875 168.09844970703125,150.3984375 168.09844970703125,147.3984375 zM320.4984130859375,134.8984375 c0,7.900000095367432 0,15.800000190734863 0,23.600000381469727 c5,0 9.800000190734863,0 14.699999809265137,0 c0,-0.800000011920929 0,-1.600000023841858 0,-2.5 c-3.799999952316284,0 -7.5,0 -11.300000190734863,0 c0,-2.9000000953674316 0,-5.699999809265137 0,-8.600000381469727 c3.4000000953674316,0 6.800000190734863,0 10.199999809265137,0 c0,-0.8999999761581421 0,-1.600000023841858 0,-2.5 c-3.4000000953674316,0 -6.800000190734863,0 -10.199999809265137,0 c0,-2.5 0,-5 0,-7.5 c3.5999999046325684,0 7.199999809265137,0 10.800000190734863,0 c0,-0.8999999761581421 0,-1.7000000476837158 0,-2.5 C329.8984375,134.8984375 325.198486328125,134.8984375 320.4984130859375,134.8984375 zM58.09844970703125,158.4984130859375 c5,0 9.899999618530273,0 14.699999809265137,0 c0,-0.8999999761581421 0,-1.600000023841858 0,-2.5 c-3.799999952316284,0 -7.599999904632568,0 -11.300000190734863,0 c0,-2.9000000953674316 0,-5.699999809265137 0,-8.600000381469727 c3.4000000953674316,0 6.800000190734863,0 10.199999809265137,0 c0,-0.8999999761581421 0,-1.600000023841858 0,-2.5 c-3.4000000953674316,0 -6.800000190734863,0 -10.199999809265137,0 c0,-2.5999999046325684 0,-5 0,-7.5 c3.5999999046325684,0 7.199999809265137,0 10.800000190734863,0 c0,-0.8999999761581421 0,-1.7000000476837158 0,-2.5 c-4.800000190734863,0 -9.5,0 -14.199999809265137,0 C58.09844970703125,142.7984619140625 58.09844970703125,150.698486328125 58.09844970703125,158.4984130859375 zM534.598388671875,158.4984130859375 c0,-0.8999999761581421 0,-1.600000023841858 0,-2.5 c-3.799999952316284,0 -7.599999904632568,0 -11.300000190734863,0 c0,-2.9000000953674316 0,-5.699999809265137 0,-8.600000381469727 c3.4000000953674316,0 6.800000190734863,0 10.199999809265137,0 c0,-0.8999999761581421 0,-1.600000023841858 0,-2.5999999046325684 c-3.4000000953674316,0 -6.800000190734863,0 -10.199999809265137,0 c0,-2.5 0,-5 0,-7.5 c3.5999999046325684,0 7.199999809265137,0 10.800000190734863,0 c0,-0.8999999761581421 0,-1.7000000476837158 0,-2.5 c-4.800000190734863,0 -9.5,0 -14.199999809265137,0 c0,7.900000095367432 0,15.699999809265137 0,23.600000381469727 C524.7984619140625,158.4984130859375 529.698486328125,158.4984130859375 534.598388671875,158.4984130859375 zM552.598388671875,135.598388671875 c-1.399999976158142,-0.30000001192092896 -2.5999999046325684,-0.699999988079071 -3.799999952316284,-0.8999999761581421 c-3,-0.30000001192092896 -6,-0.20000000298023224 -8.5,1.899999976158142 c-2.799999952316284,2.200000047683716 -3,6 -0.4000000059604645,8.399999618530273 c1,0.8999999761581421 2.299999952316284,1.5 3.5999999046325684,2.0999999046325684 c1.2999999523162842,0.6000000238418579 2.5999999046325684,1 3.9000000953674316,1.5 c2,0.8999999761581421 2.9000000953674316,2.4000000953674316 2.700000047683716,4.099999904632568 c-0.20000000298023224,1.7999999523162842 -1.600000023841858,3 -3.799999952316284,3.5 c-0.4000000059604645,0.10000000149011612 -0.800000011920929,0.10000000149011612 -1.2000000476837158,0.10000000149011612 c-2.299999952316284,0.10000000149011612 -4.5,-0.4000000059604645 -6.699999809265137,-1.5 c-0.30000001192092896,0.8999999761581421 -0.6000000238418579,1.7000000476837158 -1,2.799999952316284 c1.7000000476837158,0.4000000059604645 3.299999952316284,0.8999999761581421 4.900000095367432,1.100000023841858 c2.5999999046325684,0.4000000059604645 5.099999904632568,0.20000000298023224 7.5,-1 c2.200000047683716,-1.100000023841858 3.5999999046325684,-2.799999952316284 3.700000047683716,-5.300000190734863 c0.10000000149011612,-2.5 -1,-4.400000095367432 -3.0999999046325684,-5.599999904632568 c-1.100000023841858,-0.6000000238418579 -2.4000000953674316,-1.100000023841858 -3.5999999046325684,-1.600000023841858 c-1.2000000476837158,-0.5 -2.4000000953674316,-1 -3.5,-1.600000023841858 c-1.2000000476837158,-0.699999988079071 -1.899999976158142,-1.7999999523162842 -1.7000000476837158,-3.299999952316284 c0.20000000298023224,-1.5 1.2000000476837158,-2.299999952316284 2.5,-2.799999952316284 c0.6000000238418579,-0.20000000298023224 1.2999999523162842,-0.4000000059604645 1.899999976158142,-0.30000001192092896 c1.7999999523162842,0.20000000298023224 3.700000047683716,0.4000000059604645 5.699999809265137,0.699999988079071 c-0.10000000149011612,0.10000000149011612 0,0.10000000149011612 0,0 C551.9984130859375,137.198486328125 552.2984619140625,136.598388671875 552.598388671875,135.598388671875 zM358.2984619140625,135.4984130859375 c-5.400000095367432,-1.399999976158142 -10.5,-1.600000023841858 -15.100000381469727,1.600000023841858 c-4.199999809265137,2.799999952316284 -5.5,7 -4.900000095367432,11.800000190734863 c0.6000000238418579,4.900000095367432 3.5,7.900000095367432 8.199999809265137,9.300000190734863 c3.0999999046325684,0.8999999761581421 6.300000190734863,0.800000011920929 9.5,0.20000000298023224 c2.5999999046325684,-0.5 2.5999999046325684,-0.6000000238418579 1.7000000476837158,-2.799999952316284 c-2.299999952316284,0.20000000298023224 -4.599999904632568,0.6000000238418579 -6.800000190734863,0.5 c-5.199999809265137,-0.10000000149011612 -8.699999809265137,-3.5999999046325684 -8.899999618530273,-8.600000381469727 c-0.30000001192092896,-5.400000095367432 2.5999999046325684,-9.199999809265137 7.800000190734863,-10.100000381469727 c2.5999999046325684,-0.5 5.199999809265137,-0.20000000298023224 7.800000190734863,0.699999988079071 C357.698486328125,137.2984619140625 357.9984130859375,136.4984130859375 358.2984619140625,135.4984130859375 zM47.09844970703125,158.598388671875 c0,-7.099999904632568 0,-14 0,-21.100000381469727 c2.700000047683716,0 5.400000095367432,0 8,0 c0,-0.8999999761581421 0,-1.7000000476837158 0,-2.5999999046325684 c-6.5,0 -13,0 -19.5,0 c0,0.8999999761581421 0,1.7000000476837158 0,2.700000047683716 c2.700000047683716,0 5.300000190734863,0 8,0 c0,7.099999904632568 0,14 0,21 C44.7984619140625,158.598388671875 45.7984619140625,158.598388671875 47.09844970703125,158.598388671875 zM305.8984375,137.4984130859375 c0,7.099999904632568 0,14.100000381469727 0,21 c1.2000000476837158,0 2.299999952316284,0 3.5,0 c0,-7 0,-14 0,-21.100000381469727 c2.799999952316284,0 5.400000095367432,0 8,0 c0,-0.8999999761581421 0,-1.7000000476837158 0,-2.5 c-6.599999904632568,0 -13,0 -19.5,0 c0,0.8999999761581421 0,1.7000000476837158 0,2.5999999046325684 C300.598388671875,137.4984130859375 303.098388671875,137.4984130859375 305.8984375,137.4984130859375 zM161.3984375,137.4984130859375 c0,-1 0,-1.7999999523162842 0,-2.5999999046325684 c-6.5,0 -13,0 -19.5,0 c0,0.8999999761581421 0,1.7000000476837158 0,2.700000047683716 c2.700000047683716,0 5.300000190734863,0 8,0 c0,7.099999904632568 0,14 0,21 c1.2000000476837158,0 2.299999952316284,0 3.5,0 c0,-7.099999904632568 0,-14 0,-21 C156.09844970703125,137.4984130859375 158.69842529296875,137.4984130859375 161.3984375,137.4984130859375 zM444.4984130859375,155.9984130859375 c0,-7.199999809265137 0,-14.100000381469727 0,-21.100000381469727 c-1.2000000476837158,0 -2.200000047683716,0 -3.299999952316284,0 c0,7.900000095367432 0,15.699999809265137 0,23.600000381469727 c4.900000095367432,0 9.800000190734863,0 14.600000381469727,0 c0,-0.8999999761581421 0,-1.600000023841858 0,-2.5 C451.9984130859375,155.9984130859375 448.2984619140625,155.9984130859375 444.4984130859375,155.9984130859375 zM510.4984130859375,158.4984130859375 c1.2000000476837158,0 2.200000047683716,0 3.299999952316284,0 c0,-7.900000095367432 0,-15.800000190734863 0,-23.600000381469727 c-1.100000023841858,0 -2.200000047683716,0 -3.299999952316284,0 C510.4984130859375,142.7984619140625 510.4984130859375,150.598388671875 510.4984130859375,158.4984130859375 zM6.69842529296875,158.598388671875 c0,-7.900000095367432 0,-15.800000190734863 0,-23.600000381469727 c-1.100000023841858,0 -2.200000047683716,0 -3.200000047683716,0 c0,7.900000095367432 0,15.800000190734863 0,23.600000381469727 C4.4984130859375,158.598388671875 5.4984130859375,158.598388671875 6.69842529296875,158.598388671875 zM572.4984130859375,12.9984130859375 c0,-3.9000000953674316 -3,-6.800000190734863 -6.800000190734863,-6.800000190734863 c-3.9000000953674316,0 -6.900000095367432,3 -6.900000095367432,6.800000190734863 c0,3.9000000953674316 3,6.900000095367432 6.900000095367432,6.900000095367432 C569.598388671875,19.8984375 572.4984130859375,16.9984130859375 572.4984130859375,12.9984130859375 z" id="svg_1"/><path class="st1" d="M551.198486328125,32.7984619140625 c-1.7999999523162842,-0.699999988079071 -2.5999999046325684,-1.7000000476837158 -3,-3.200000047683716 c-0.699999988079071,-2.5 -1.399999976158142,-4.900000095367432 -2.299999952316284,-7.300000190734863 c-2.299999952316284,-6.099999904632568 -7,-9.399999618530273 -13.5,-9.399999618530273 c-5.599999904632568,0 -11.199999809265137,0 -16.799999237060547,0 c-1.100000023841858,0 -1.5,0.30000001192092896 -1.2999999523162842,1.399999976158142 c0,0 0,0.10000000149011612 0,0.10000000149011612 c0,22.600000381469727 -0.10000000149011612,45.099998474121094 -0.10000000149011612,67.69999694824219 c0,5.199999809265137 0.10000000149011612,10.399999618530273 0.20000000298023224,15.600000381469727 c0,1.2999999523162842 0.20000000298023224,2.5999999046325684 0.5,3.9000000953674316 c0.5,2.299999952316284 2,4 4.300000190734863,4.800000190734863 c2.299999952316284,0.800000011920929 4.699999809265137,1.2999999523162842 7,2 c0.6000000238418579,0.20000000298023224 1.100000023841858,0.30000001192092896 1.7000000476837158,0.5 c-2.5,2.299999952316284 -38.20000076293945,2.5999999046325684 -43.70000076293945,0.30000001192092896 c2.5,-0.6000000238418579 5,-1.100000023841858 7.400000095367432,-1.7999999523162842 c3.200000047683716,-0.8999999761581421 5.800000190734863,-2.5 6.699999809265137,-6 c0.20000000298023224,-0.8999999761581421 0.30000001192092896,-1.7999999523162842 0.4000000059604645,-2.700000047683716 c0,-0.10000000149011612 0,-0.20000000298023224 0,-0.20000000298023224 c0.10000000149011612,-27.200000762939453 0.10000000149011612,-54.400001525878906 0.20000000298023224,-81.5999984741211 c0,-2.4000000953674316 -0.6000000238418579,-4 -3.9000000953674316,-3.9000000953674316 c-4.599999904632568,0.10000000149011612 -9.300000190734863,0 -13.899999618530273,0.10000000149011612 c-7.300000190734863,0.10000000149011612 -11.800000190734863,3.299999952316284 -14.199999809265137,10.100000381469727 c-1.600000023841858,4.400000095367432 -3.0999999046325684,8.800000190734863 -2.5999999046325684,13.5 c0.30000001192092896,2.9000000953674316 1.100000023841858,5.800000190734863 1.7999999523162842,8.600000381469727 c1.399999976158142,5.800000190734863 2.200000047683716,11.600000381469727 2,17.5 c-0.5,13.899999618530273 -6.199999809265137,25.299999237060547 -16.600000381469727,34.29999923706055 c-7.800000190734863,6.800000190734863 -17,10.699999809265137 -27.200000762939453,12.100000381469727 c-3.700000047683716,0.5 -7.599999904632568,0.699999988079071 -11.300000190734863,0.800000011920929 c-7.900000095367432,0.20000000298023224 -15.699999809265137,0.4000000059604645 -23.600000381469727,0.5 c-12.300000190734863,0.10000000149011612 -24.600000381469727,0.20000000298023224 -36.900001525878906,0.30000001192092896 c-5.099999904632568,0 -10.199999809265137,0.10000000149011612 -15.300000190734863,0.10000000149011612 c-4.800000190734863,0 -9.600000381469727,-0.10000000149011612 -14.399999618530273,-0.20000000298023224 c-0.800000011920929,0 -1.600000023841858,-0.10000000149011612 -2.4000000953674316,-0.30000001192092896 c-0.30000001192092896,-0.10000000149011612 -0.6000000238418579,-0.5 -0.800000011920929,-0.800000011920929 c0.30000001192092896,-0.20000000298023224 0.5,-0.6000000238418579 0.800000011920929,-0.699999988079071 c2.5,-0.6000000238418579 5,-1 7.5,-1.7000000476837158 c4.900000095367432,-1.399999976158142 6.900000095367432,-4.099999904632568 6.900000095367432,-9.300000190734863 c0,-26.200000762939453 0,-52.29999923706055 0,-78.5 c0,-5.099999904632568 -2.5,-8.199999809265137 -7.699999809265137,-9.300000190734863 c-2.0999999046325684,-0.5 -4.300000190734863,-0.800000011920929 -6.5,-1.2000000476837158 c-0.6000000238418579,-0.10000000149011612 -1.100000023841858,-0.20000000298023224 -1,-0.8999999761581421 c0.10000000149011612,-0.30000001192092896 0.5,-0.6000000238418579 0.8999999761581421,-0.699999988079071 c2.799999952316284,-0.30000001192092896 5.5,-0.699999988079071 8.300000190734863,-0.699999988079071 c22.200000762939453,-0.10000000149011612 44.5,-0.10000000149011612 66.69999694824219,0 c5.599999904632568,0 11.199999809265137,0 16.799999237060547,0.5 c10.100000381469727,0.8999999761581421 20.100000381469727,2.5 29.399999618530273,6.900000095367432 c6.300000190734863,3 11.699999809265137,7.199999809265137 16.200000762939453,12.699999809265137 c0.800000011920929,1 1.7999999523162842,1.7000000476837158 2.700000047683716,2.5999999046325684 c0.10000000149011612,-0.10000000149011612 0.20000000298023224,-0.10000000149011612 0.4000000059604645,-0.20000000298023224 c0.4000000059604645,-7.400000095367432 0.800000011920929,-14.699999809265137 1.2000000476837158,-22.200000762939453 c0.5,0 0.8999999761581421,-0.10000000149011612 1.2999999523162842,-0.10000000149011612 c29.200000762939453,0 58.29999923706055,0 87.5,0 c1.2000000476837158,0 1.399999976158142,0.4000000059604645 1.399999976158142,1.399999976158142 c-0.10000000149011612,7.400000095367432 0,14.800000190734863 -0.10000000149011612,22.200000762939453 C551.8984375,31.198486328125 551.4984130859375,31.8984375 551.198486328125,32.7984619140625 zM391.3984375,57.8984375 C391.3984375,57.8984375 391.3984375,57.8984375 391.3984375,57.8984375 c0,11.100000381469727 0,22.200000762939453 0,33.29999923706055 c0,2.4000000953674316 0.10000000149011612,4.900000095367432 0.30000001192092896,7.300000190734863 c0.30000001192092896,3.0999999046325684 1.899999976158142,4.900000095367432 4.900000095367432,5.699999809265137 c3,0.800000011920929 6,0.6000000238418579 9,0.5 c5.199999809265137,-0.20000000298023224 10.300000190734863,-0.800000011920929 15.399999618530273,-2.200000047683716 c10,-2.700000047683716 18.100000381469727,-8.100000381469727 23.200000762939453,-17.200000762939453 c4.400000095367432,-7.699999809265137 6.5,-16.200000762939453 7,-25 c0.5,-8.300000190734863 -1.100000023841858,-16.299999237060547 -5,-23.700000762939453 c-4.400000095367432,-8.300000190734863 -10.300000190734863,-15.100000381469727 -18.899999618530273,-19.299999237060547 c-9.699999809265137,-4.699999809265137 -20.100000381469727,-5.699999809265137 -30.700000762939453,-5.199999809265137 c-3.5999999046325684,0.20000000298023224 -4.900000095367432,1.7999999523162842 -5.099999904632568,5.5 c-0.10000000149011612,3.200000047683716 -0.20000000298023224,6.300000190734863 -0.20000000298023224,9.5 C391.3984375,37.2984619140625 391.3984375,47.598388671875 391.3984375,57.8984375 zM375.7984619140625,58.598388671875 c0,-9.399999618530273 0,-18.799999237060547 0,-28.200000762939453 c0,-3.5999999046325684 -0.10000000149011612,-7.300000190734863 -0.20000000298023224,-10.899999618530273 c-0.10000000149011612,-5 -3,-8.600000381469727 -7.900000095367432,-9.800000190734863 c-2.5,-0.6000000238418579 -5.099999904632568,-0.699999988079071 -7.699999809265137,-0.30000001192092896 c-3.4000000953674316,0.5 -6.5,1.7999999523162842 -8.300000190734863,5 c-1.2999999523162842,2.200000047683716 -1.600000023841858,4.599999904632568 -1.600000023841858,7 c0,23.899999618530273 0,47.900001525878906 0,71.80000305175781 c0,1.7999999523162842 0.10000000149011612,3.5999999046325684 0.20000000298023224,5.400000095367432 c0.30000001192092896,4.199999809265137 2.9000000953674316,7.400000095367432 6.900000095367432,8.699999809265137 c3.0999999046325684,1 6.300000190734863,1.2000000476837158 9.600000381469727,0.6000000238418579 c4.5,-0.800000011920929 7.5,-3.299999952316284 8.5,-7.800000190734863 c0.4000000059604645,-1.7000000476837158 0.5,-3.5999999046325684 0.5,-5.300000190734863 C375.8984375,82.698486328125 375.7984619140625,70.598388671875 375.7984619140625,58.598388671875 z" id="svg_2"/><path class="st1" d="M82.9984130859375,49.598388671875 c3.200000047683716,-2.799999952316284 6.400000095367432,-5.599999904632568 9.600000381469727,-8.399999618530273 c7.300000190734863,-6.400000095367432 14.699999809265137,-12.800000190734863 22.799999237060547,-18.299999237060547 c9.699999809265137,-6.699999809265137 20.200000762939453,-12 31.700000762939453,-14.800000190734863 c5,-1.2000000476837158 10,-1.899999976158142 15.100000381469727,-1.5 c7.199999809265137,0.5 14.100000381469727,2.700000047683716 20.700000762939453,5.599999904632568 c10.600000381469727,4.699999809265137 20.299999237060547,11 29.399999618530273,18.200000762939453 c10.399999618530273,8.199999809265137 20.700000762939453,16.799999237060547 31.100000381469727,25 c9.5,7.5 19.100000381469727,14.899999618530273 28.799999237060547,22.100000381469727 c8.600000381469727,6.300000190734863 18.200000762939453,10.5 28.799999237060547,12.399999618530273 c2.700000047683716,0.5 5.400000095367432,0.699999988079071 8.100000381469727,1 c2.200000047683716,0.30000001192092896 3.4000000953674316,1.5 3.4000000953674316,3.700000047683716 c0,4.900000095367432 0,9.699999809265137 0.10000000149011612,14.600000381469727 c0,1.100000023841858 -0.30000001192092896,1.399999976158142 -1.399999976158142,1.2999999523162842 c-8.600000381469727,-0.6000000238418579 -16.700000762939453,-2.700000047683716 -24.100000381469727,-7.400000095367432 c-20.200000762939453,-12.800000190734863 -39.099998474121094,-27.200000762939453 -56.599998474121094,-43.400001525878906 c-8.600000381469727,-8 -17.399999618530273,-15.899999618530273 -27,-22.700000762939453 c-8.800000190734863,-6.199999809265137 -17.899999618530273,-11.899999618530273 -28,-15.800000190734863 c-5.699999809265137,-2.200000047683716 -11.600000381469727,-3.5 -17.700000762939453,-3.799999952316284 c-11.5,-0.6000000238418579 -22,2.4000000953674316 -31.899999618530273,8.100000381469727 c-9.899999618530273,5.699999809265137 -19.100000381469727,12.5 -28.399999618530273,19.200000762939453 c-3.0999999046325684,2.299999952316284 -6.300000190734863,4.5 -9.5,6.800000190734863 C85.59844970703125,53.098388671875 83.9984130859375,52.4984130859375 82.9984130859375,49.598388671875 z" id="svg_3"/><path class="st1" d="M229.8984375,65.598388671875 c0.800000011920929,1.399999976158142 0.20000000298023224,2.0999999046325684 -0.699999988079071,2.9000000953674316 c-10.300000190734863,9.5 -20.700000762939453,19 -32.400001525878906,26.799999237060547 c-8,5.400000095367432 -16.399999618530273,10.199999809265137 -25.799999237060547,12.899999618530273 c-6.099999904632568,1.7000000476837158 -12.300000190734863,2.5999999046325684 -18.600000381469727,2.200000047683716 c-9.699999809265137,-0.5 -18.600000381469727,-3.4000000953674316 -27.100000381469727,-8 c-10,-5.400000095367432 -19,-12.100000381469727 -27.799999237060547,-19.200000762939453 c-11,-8.899999618530273 -21.799999237060547,-18.100000381469727 -32.900001525878906,-26.799999237060547 c-7.800000190734863,-6.199999809265137 -15.899999618530273,-12.100000381469727 -24.100000381469727,-17.799999237060547 c-9.399999618530273,-6.400000095367432 -20,-10.199999809265137 -31.299999237060547,-11.899999618530273 c-1.2000000476837158,-0.20000000298023224 -2.4000000953674316,-0.4000000059604645 -3.5,-0.699999988079071 c-0.4000000059604645,-0.10000000149011612 -0.800000011920929,-0.699999988079071 -0.800000011920929,-1.100000023841858 c-0.10000000149011612,-5.699999809265137 0,-11.399999618530273 0,-17.200000762939453 c0,-1 0.6000000238418579,-0.8999999761581421 1.2999999523162842,-0.8999999761581421 c4.5,0.5 8.800000190734863,1.600000023841858 13,3.299999952316284 c10.5,4.099999904632568 20.100000381469727,9.899999618530273 28.799999237060547,17 c9.199999809265137,7.400000095367432 18,15.300000190734863 27.100000381469727,22.899999618530273 c14.100000381469727,11.800000190734863 28.200000762939453,23.700000762939453 42.5,35.400001525878906 c8.399999618530273,6.900000095367432 18.299999237060547,10.800000190734863 29,12.699999809265137 c3.799999952316284,0.699999988079071 7.699999809265137,1.100000023841858 11.5,1.2000000476837158 c10.199999809265137,0.30000001192092896 19.799999237060547,-2.299999952316284 29,-6.800000190734863 c7.900000095367432,-3.9000000953674316 15.100000381469727,-9.100000381469727 22.299999237060547,-14.300000190734863 c5.300000190734863,-3.799999952316284 10.5,-7.599999904632568 15.699999809265137,-11.399999618530273 C226.4984130859375,65.7984619140625 228.19842529296875,65.598388671875 229.8984375,65.598388671875 z" id="svg_4"/><path class="st1" d="M6.09844970703125,108.8984375 c0.5,-0.4000000059604645 0.8999999761581421,-0.8999999761581421 1.5,-1 c9.899999618530273,-2.299999952316284 18.5,-7.199999809265137 26.100000381469727,-13.699999809265137 c8.100000381469727,-6.900000095367432 15.899999618530273,-14.199999809265137 23.899999618530273,-21.299999237060547 c1.7999999523162842,-1.7000000476837158 3.700000047683716,-3.299999952316284 5.5,-5 c1.2999999523162842,-1.2999999523162842 2.9000000953674316,-1.600000023841858 4.5,-2 c0.20000000298023224,0 0.699999988079071,0.20000000298023224 0.699999988079071,0.4000000059604645 c0,0.6000000238418579 0.10000000149011612,1.2999999523162842 -0.20000000298023224,1.600000023841858 c-1.2000000476837158,1.399999976158142 -2.5,2.799999952316284 -3.799999952316284,4.199999809265137 c-10.399999618530273,10.800000190734863 -21.5,20.700000762939453 -34.20000076293945,28.700000762939453 c-5.300000190734863,3.4000000953674316 -10.699999809265137,6.300000190734863 -16.799999237060547,8 c-2.299999952316284,0.6000000238418579 -4.599999904632568,0.8999999761581421 -7,0.5 C6.19842529296875,109.198486328125 6.19842529296875,108.9984130859375 6.09844970703125,108.8984375 z" id="svg_5"/><path d="M260.8984375,153.9984130859375 c0,-6.300000190734863 0,-12.600000381469727 0,-19 c0.8999999761581421,0 2,0 3,0 c0,7.900000095367432 0,15.699999809265137 0,23.700000762939453 c-1.100000023841858,0 -2.0999999046325684,0.10000000149011612 -3.200000047683716,0 c-0.30000001192092896,0 -0.6000000238418579,-0.4000000059604645 -0.800000011920929,-0.800000011920929 c-4.199999809265137,-6.199999809265137 -8.5,-12.399999618530273 -12.600000381469727,-18.399999618530273 c0,6.199999809265137 0,12.600000381469727 0,19.200000762939453 c-1,0 -2,0 -3,0 c0,-7.900000095367432 0,-15.699999809265137 0,-23.700000762939453 c1.100000023841858,0 2.200000047683716,-0.10000000149011612 3.200000047683716,0 c0.4000000059604645,0 0.8999999761581421,0.5 1.100000023841858,0.8999999761581421 c4,6 8.100000381469727,12 12.100000381469727,18 C260.7984619140625,153.8984375 260.8984375,153.9984130859375 260.8984375,153.9984130859375 z" id="svg_6" class=""/><path d="M391.098388671875,158.598388671875 c-1,0 -2,0 -3,0 c0,-7.900000095367432 0,-15.699999809265137 0,-23.700000762939453 c1.100000023841858,0 2.200000047683716,-0.10000000149011612 3.200000047683716,0 c0.4000000059604645,0 0.800000011920929,0.4000000059604645 1.100000023841858,0.800000011920929 c4.099999904632568,6 8.100000381469727,12.100000381469727 12.199999809265137,18.100000381469727 c0.10000000149011612,0.10000000149011612 0.20000000298023224,0.20000000298023224 0.20000000298023224,0.20000000298023224 c0,-6.300000190734863 0,-12.600000381469727 0,-19 c0.8999999761581421,0 1.899999976158142,0 3,0 c0,7.800000190734863 0,15.699999809265137 0,23.700000762939453 c-1,0 -2.0999999046325684,0.10000000149011612 -3.200000047683716,0 c-0.30000001192092896,0 -0.699999988079071,-0.5 -0.8999999761581421,-0.800000011920929 c-4.199999809265137,-6.199999809265137 -8.399999618530273,-12.300000190734863 -12.600000381469727,-18.299999237060547 C391.098388671875,145.598388671875 391.098388671875,151.9984130859375 391.098388671875,158.598388671875 z" id="svg_7" class=""/><path d="M29.2984619140625,153.9984130859375 c0,-6.300000190734863 0,-12.600000381469727 0,-19 c0.8999999761581421,0 2,0 3,0 c0,7.900000095367432 0,15.699999809265137 0,23.700000762939453 c-1.100000023841858,0 -2.0999999046325684,0.10000000149011612 -3.200000047683716,0 c-0.30000001192092896,0 -0.6000000238418579,-0.4000000059604645 -0.800000011920929,-0.800000011920929 c-4.199999809265137,-6.199999809265137 -8.5,-12.399999618530273 -12.600000381469727,-18.399999618530273 c0,6.199999809265137 0,12.600000381469727 0,19.200000762939453 c-1,0 -2,0 -3,0 c0,-7.900000095367432 0,-15.699999809265137 0,-23.700000762939453 c1.100000023841858,0 2.200000047683716,-0.10000000149011612 3.200000047683716,0 c0.4000000059604645,0 0.8999999761581421,0.5 1.100000023841858,0.8999999761581421 c4,6 8.100000381469727,12 12.100000381469727,18 C29.19842529296875,153.8984375 29.2984619140625,153.8984375 29.2984619140625,153.9984130859375 z" id="svg_8" class=""/><path d="M218.3984375,158.598388671875 c0,-7.900000095367432 0,-15.600000381469727 0,-23.600000381469727 c2.5,-0.10000000149011612 4.900000095367432,-0.4000000059604645 7.400000095367432,-0.30000001192092896 c1.7999999523162842,0 3.700000047683716,0.20000000298023224 5.5,0.6000000238418579 c6.300000190734863,1.5 9.600000381469727,6.5 8.600000381469727,13 c-0.8999999761581421,5.900000095367432 -4.400000095367432,9.5 -10.899999618530273,10.300000190734863 C225.59844970703125,158.8984375 221.9984130859375,158.598388671875 218.3984375,158.598388671875 zM221.7984619140625,156.198486328125 c2.0999999046325684,0 4.099999904632568,0.20000000298023224 6.099999904632568,0 c4.900000095367432,-0.6000000238418579 7.800000190734863,-3.5 8.399999618530273,-8.399999618530273 c0.4000000059604645,-3.700000047683716 -0.30000001192092896,-7 -3.700000047683716,-9.100000381469727 c-3.299999952316284,-2 -7,-1.899999976158142 -10.699999809265137,-1.2999999523162842 C221.7984619140625,143.698486328125 221.7984619140625,149.8984375 221.7984619140625,156.198486328125 z" id="svg_9" class=""/><path d="M183.8984375,158.598388671875 c0,-8 0,-15.699999809265137 0,-23.600000381469727 c5.199999809265137,-0.5 10.300000190734863,-1.100000023841858 15.199999809265137,0.8999999761581421 c4.800000190734863,2 7.099999904632568,6.699999809265137 6.300000190734863,12.199999809265137 c-0.8999999761581421,5.900000095367432 -4.5,9.300000190734863 -10.899999618530273,10.300000190734863 c-2,0.30000001192092896 -4,0.30000001192092896 -6,0.30000001192092896 C186.9984130859375,158.8984375 185.4984130859375,158.698486328125 183.8984375,158.598388671875 zM187.2984619140625,156.198486328125 c2.0999999046325684,0 4.099999904632568,0.20000000298023224 6.099999904632568,0 c4.900000095367432,-0.6000000238418579 7.800000190734863,-3.5 8.399999618530273,-8.399999618530273 c0.4000000059604645,-3.700000047683716 -0.30000001192092896,-7 -3.700000047683716,-9.100000381469727 c-3.299999952316284,-2 -7,-1.899999976158142 -10.699999809265137,-1.2999999523162842 C187.2984619140625,143.698486328125 187.2984619140625,149.8984375 187.2984619140625,156.198486328125 z" id="svg_10" class=""/><path d="M436.598388671875,146.598388671875 c0,7.5 -4.800000190734863,12.300000190734863 -12.399999618530273,12.300000190734863 c-7.099999904632568,0 -11.800000190734863,-4.800000190734863 -11.800000190734863,-12.100000381469727 c0,-7.300000190734863 5,-12.199999809265137 12.600000381469727,-12.199999809265137 C431.8984375,134.598388671875 436.598388671875,139.3984375 436.598388671875,146.598388671875 zM432.9984130859375,146.2984619140625 c-0.10000000149011612,-0.699999988079071 -0.20000000298023224,-1.899999976158142 -0.6000000238418579,-3 c-1.100000023841858,-3.799999952316284 -4.199999809265137,-6.099999904632568 -8,-6.099999904632568 c-3.799999952316284,0 -6.699999809265137,2.200000047683716 -7.900000095367432,6 c-0.6000000238418579,2 -0.800000011920929,4 -0.4000000059604645,6 c0.699999988079071,3.200000047683716 2.299999952316284,5.699999809265137 5.5,6.699999809265137 c3,1 5.800000190734863,0.6000000238418579 8.199999809265137,-1.5 C432.098388671875,152.2984619140625 432.7984619140625,149.698486328125 432.9984130859375,146.2984619140625 z" id="svg_11" class=""/><path d="M480.4984130859375,146.4984130859375 c0,7.599999904632568 -4.800000190734863,12.399999618530273 -12.5,12.399999618530273 c-7.099999904632568,0 -11.800000190734863,-4.800000190734863 -11.800000190734863,-12.100000381469727 c0,-7.300000190734863 5,-12.199999809265137 12.5,-12.100000381469727 C475.7984619140625,134.598388671875 480.4984130859375,139.3984375 480.4984130859375,146.4984130859375 zM459.7984619140625,147.4984130859375 c0.20000000298023224,0.8999999761581421 0.5,2.5 1.100000023841858,4 c1.399999976158142,3.0999999046325684 4,4.800000190734863 7.400000095367432,4.800000190734863 c3.4000000953674316,0 6,-1.600000023841858 7.400000095367432,-4.699999809265137 c1.600000023841858,-3.4000000953674316 1.5,-6.900000095367432 -0.30000001192092896,-10.300000190734863 c-2.4000000953674316,-4.400000095367432 -8.300000190734863,-5.599999904632568 -12.199999809265137,-2.5 C460.7984619140625,140.7984619140625 459.9984130859375,143.598388671875 459.7984619140625,147.4984130859375 z" id="svg_12" class=""/><path class="st1" d="M310.8984375,8.7984619140625 c-1.399999976158142,0.4000000059604645 -2.700000047683716,0.699999988079071 -4,1 c-9.399999618530273,1.899999976158142 -17.799999237060547,6 -25.200000762939453,11.899999618530273 c-7.400000095367432,5.900000095367432 -14.399999618530273,12.300000190734863 -21.600000381469727,18.5 c-3.299999952316284,2.9000000953674316 -6.5,5.900000095367432 -9.800000190734863,8.899999618530273 c-1.2999999523162842,1.100000023841858 -2.700000047683716,1.600000023841858 -4.599999904632568,1.2999999523162842 c1.7000000476837158,-1.5 3.200000047683716,-2.799999952316284 4.699999809265137,-4.199999809265137 c6.5,-6.099999904632568 12.899999618530273,-12.199999809265137 19.399999618530273,-18.200000762939453 c7.199999809265137,-6.599999904632568 14.899999618530273,-12.399999618530273 23.899999618530273,-16.5 c4.699999809265137,-2.200000047683716 9.699999809265137,-3.5999999046325684 14.800000190734863,-4.699999809265137 C310.098388671875,6.4984130859375 310.2984619140625,7.4984130859375 310.8984375,8.7984619140625 z" id="svg_13"/><path d="M378.698486328125,144.598388671875 c0,-3.200000047683716 0,-6.400000095367432 0,-9.699999809265137 c1.2000000476837158,0 2.299999952316284,0 3.4000000953674316,0 c0,7.900000095367432 0,15.699999809265137 0,23.600000381469727 c-1.100000023841858,0 -2.200000047683716,0 -3.4000000953674316,0 c0,-3.700000047683716 0,-7.400000095367432 0,-11.100000381469727 c-4.300000190734863,0 -8.5,0 -12.699999809265137,0 c0,3.700000047683716 0,7.400000095367432 0,11.100000381469727 c-1.2000000476837158,0 -2.200000047683716,0 -3.299999952316284,0 c0,-7.900000095367432 0,-15.699999809265137 0,-23.600000381469727 c1,0 2.0999999046325684,0 3.299999952316284,0 c0,3.200000047683716 0,6.400000095367432 0,9.699999809265137 C370.2984619140625,144.598388671875 374.3984375,144.598388671875 378.698486328125,144.598388671875 z" id="svg_14" class=""/><path d="M102.7984619140625,134.9984130859375 c3.799999952316284,-0.5 7.5,-0.8999999761581421 11.199999809265137,0.10000000149011612 c4.400000095367432,1.100000023841858 6.300000190734863,5.5 4,9 c-0.8999999761581421,1.2999999523162842 -2.299999952316284,2.200000047683716 -3.5,3.200000047683716 c2.4000000953674316,1 3.0999999046325684,3.5 3.700000047683716,6 c0.4000000059604645,1.7000000476837158 1,3.4000000953674316 1.5,5.199999809265137 c-0.8999999761581421,0 -1.899999976158142,0.10000000149011612 -2.799999952316284,0 c-0.4000000059604645,0 -0.8999999761581421,-0.4000000059604645 -1,-0.699999988079071 c-0.5,-1.600000023841858 -1,-3.200000047683716 -1.399999976158142,-4.800000190734863 c-0.8999999761581421,-3.700000047683716 -2.299999952316284,-4.699999809265137 -6.099999904632568,-4.800000190734863 c-0.699999988079071,0 -1.5,0 -2.299999952316284,0 c0,3.5 0,6.800000190734863 0,10.199999809265137 c-1.100000023841858,0 -2.200000047683716,0 -3.299999952316284,0 C102.7984619140625,150.7984619140625 102.7984619140625,142.9984130859375 102.7984619140625,134.9984130859375 zM106.09844970703125,145.8984375 c0.699999988079071,0 1.2000000476837158,0.10000000149011612 1.7999999523162842,0 c1.7000000476837158,-0.20000000298023224 3.5,-0.30000001192092896 5.099999904632568,-0.800000011920929 c1.7000000476837158,-0.6000000238418579 2.5,-2.0999999046325684 2.4000000953674316,-3.9000000953674316 c-0.10000000149011612,-1.7999999523162842 -1,-3 -2.700000047683716,-3.5999999046325684 c-2.200000047683716,-0.800000011920929 -4.400000095367432,-0.699999988079071 -6.599999904632568,-0.30000001192092896 C106.09844970703125,140.198486328125 106.09844970703125,142.9984130859375 106.09844970703125,145.8984375 z" id="svg_15" class=""/><path d="M97.19842529296875,157.598388671875 c-4.699999809265137,1.399999976158142 -9.300000190734863,1.899999976158142 -13.899999618530273,0.4000000059604645 c-4.400000095367432,-1.399999976158142 -6.900000095367432,-4.599999904632568 -7.5,-9.199999809265137 c-0.6000000238418579,-4.599999904632568 0.6000000238418579,-8.600000381469727 4.400000095367432,-11.300000190734863 c5,-3.5999999046325684 10.5,-3.4000000953674316 16.299999237060547,-1.899999976158142 c-0.20000000298023224,0.5 -0.30000001192092896,0.8999999761581421 -0.4000000059604645,1.2999999523162842 c-0.10000000149011612,0.4000000059604645 -0.30000001192092896,0.800000011920929 -0.4000000059604645,1.2999999523162842 c-2.9000000953674316,-1 -5.699999809265137,-1.2999999523162842 -8.699999809265137,-0.699999988079071 c-5,0.8999999761581421 -8,4.800000190734863 -7.699999809265137,10 c0.30000001192092896,5.099999904632568 3.799999952316284,8.5 8.899999618530273,8.699999809265137 c1.899999976158142,0.10000000149011612 3.799999952316284,-0.20000000298023224 5.699999809265137,-0.20000000298023224 c0,-2.700000047683716 0,-5 0,-7.300000190734863 c-1.7000000476837158,0 -3.4000000953674316,0 -5.199999809265137,0 c0,-0.800000011920929 0,-1.600000023841858 0,-2.4000000953674316 c2.799999952316284,0 5.599999904632568,0 8.600000381469727,0 c0,1.899999976158142 0,3.799999952316284 0,5.699999809265137 C97.19842529296875,153.7984619140625 97.19842529296875,155.598388671875 97.19842529296875,157.598388671875 z" id="svg_16" class=""/><path d="M504.2984619140625,135.598388671875 c-0.30000001192092896,1 -0.6000000238418579,1.7999999523162842 -0.8999999761581421,2.5999999046325684 c-2.9000000953674316,-1 -5.800000190734863,-1.2999999523162842 -8.699999809265137,-0.699999988079071 c-5,0.8999999761581421 -8,4.800000190734863 -7.699999809265137,10 c0.30000001192092896,5 3.700000047683716,8.5 8.800000190734863,8.699999809265137 c1.7000000476837158,0.10000000149011612 3.299999952316284,-0.10000000149011612 5,-0.30000001192092896 c0.30000001192092896,0 0.800000011920929,-0.6000000238418579 0.800000011920929,-0.8999999761581421 c0.10000000149011612,-2.0999999046325684 0,-4.199999809265137 0,-6.400000095367432 c-1.7000000476837158,0 -3.4000000953674316,0 -5.199999809265137,0 c0,-0.8999999761581421 0,-1.600000023841858 0,-2.4000000953674316 c2.799999952316284,0 5.599999904632568,0 8.5,0 c0,3.799999952316284 0,7.5 0,11.399999618530273 c-4.300000190734863,1.2999999523162842 -8.699999809265137,1.7999999523162842 -13.100000381469727,0.6000000238418579 c-4.400000095367432,-1.2000000476837158 -7.300000190734863,-4 -8.199999809265137,-8.5 c-0.8999999761581421,-4.699999809265137 0.10000000149011612,-9 4,-12.100000381469727 C492.698486328125,133.7984619140625 498.2984619140625,134.098388671875 504.2984619140625,135.598388671875 z" id="svg_17" class=""/><path d="M281.2984619140625,134.8984375 c3,8 6,15.800000190734863 9,23.799999237060547 c-1.2000000476837158,0 -2.200000047683716,0.10000000149011612 -3.200000047683716,0 c-0.30000001192092896,0 -0.699999988079071,-0.4000000059604645 -0.800000011920929,-0.800000011920929 c-0.699999988079071,-1.7999999523162842 -1.5,-3.700000047683716 -2.0999999046325684,-5.599999904632568 c-0.30000001192092896,-0.800000011920929 -0.6000000238418579,-1.100000023841858 -1.5,-1.100000023841858 c-2.4000000953674316,0.10000000149011612 -4.800000190734863,0.10000000149011612 -7.199999809265137,0 c-0.800000011920929,0 -1.100000023841858,0.20000000298023224 -1.399999976158142,0.8999999761581421 c-0.699999988079071,2.200000047683716 -1.600000023841858,4.300000190734863 -2.4000000953674316,6.5 c-1.2000000476837158,0 -2.299999952316284,0 -3.5,0 c0.10000000149011612,-0.4000000059604645 0.20000000298023224,-0.699999988079071 0.30000001192092896,-1 c2.700000047683716,-7.199999809265137 5.5,-14.5 8.199999809265137,-21.700000762939453 c0.30000001192092896,-0.800000011920929 0.6000000238418579,-1.100000023841858 1.399999976158142,-1 C279.098388671875,134.8984375 280.198486328125,134.8984375 281.2984619140625,134.8984375 zM275.198486328125,148.698486328125 c2.5999999046325684,0 5.099999904632568,0 7.699999809265137,0 c-1.2999999523162842,-3.5999999046325684 -2.5999999046325684,-7.199999809265137 -3.9000000953674316,-10.699999809265137 C277.7984619140625,141.4984130859375 276.4984130859375,145.098388671875 275.198486328125,148.698486328125 z" id="svg_18" class=""/><path d="M144.09844970703125,158.598388671875 c-1.100000023841858,0 -2.200000047683716,0.10000000149011612 -3.200000047683716,0 c-0.30000001192092896,0 -0.699999988079071,-0.5 -0.800000011920929,-0.800000011920929 c-0.800000011920929,-1.899999976158142 -1.5,-3.9000000953674316 -2.200000047683716,-5.800000190734863 c-0.20000000298023224,-0.6000000238418579 -0.5,-0.800000011920929 -1.100000023841858,-0.800000011920929 c-2.5999999046325684,0 -5.099999904632568,0 -7.699999809265137,0 c-0.6000000238418579,0 -0.8999999761581421,0.20000000298023224 -1.100000023841858,0.800000011920929 c-0.699999988079071,2 -1.399999976158142,3.9000000953674316 -2.0999999046325684,5.900000095367432 c-0.20000000298023224,0.6000000238418579 -0.5,0.8999999761581421 -1.2000000476837158,0.8999999761581421 c-0.8999999761581421,-0.10000000149011612 -1.7000000476837158,0 -2.799999952316284,0 c3,-8 6,-15.899999618530273 8.899999618530273,-23.700000762939453 c0.10000000149011612,0 0.20000000298023224,-0.10000000149011612 0.20000000298023224,-0.10000000149011612 c1.2999999523162842,0 2.799999952316284,-0.5 3.799999952316284,0.10000000149011612 c0.8999999761581421,0.6000000238418579 1.100000023841858,2.200000047683716 1.600000023841858,3.299999952316284 c2.4000000953674316,6.300000190734863 4.800000190734863,12.699999809265137 7.199999809265137,19 C143.7984619140625,157.698486328125 143.8984375,158.098388671875 144.09844970703125,158.598388671875 zM129.09844970703125,148.698486328125 c2.5999999046325684,0 5.099999904632568,0 7.699999809265137,0 c-1.2999999523162842,-3.5999999046325684 -2.5999999046325684,-7.199999809265137 -3.9000000953674316,-10.699999809265137 C131.59844970703125,141.4984130859375 130.3984375,145.098388671875 129.09844970703125,148.698486328125 z" id="svg_19" class=""/><path d="M168.09844970703125,147.3984375 c0,3 0,5.699999809265137 0,8.600000381469727 c3.799999952316284,0 7.5,0 11.300000190734863,0 c0,0.8999999761581421 0,1.7000000476837158 0,2.5 c-4.900000095367432,0 -9.800000190734863,0 -14.699999809265137,0 c0,-7.800000190734863 0,-15.699999809265137 0,-23.600000381469727 c4.699999809265137,0 9.399999618530273,0 14.199999809265137,0 c0,0.800000011920929 0,1.600000023841858 0,2.5 c-3.5999999046325684,0 -7.099999904632568,0 -10.800000190734863,0 c0,2.5 0,4.900000095367432 0,7.5 c3.299999952316284,0 6.699999809265137,0 10.199999809265137,0 c0,0.8999999761581421 0,1.600000023841858 0,2.5 C174.8984375,147.3984375 171.4984130859375,147.3984375 168.09844970703125,147.3984375 z" id="svg_20" class=""/><path d="M320.4984130859375,134.8984375 c4.800000190734863,0 9.399999618530273,0 14.199999809265137,0 c0,0.800000011920929 0,1.600000023841858 0,2.5 c-3.5999999046325684,0 -7.099999904632568,0 -10.800000190734863,0 c0,2.5 0,4.900000095367432 0,7.5 c3.4000000953674316,0 6.699999809265137,0 10.199999809265137,0 c0,0.8999999761581421 0,1.600000023841858 0,2.5 c-3.4000000953674316,0 -6.699999809265137,0 -10.199999809265137,0 c0,2.9000000953674316 0,5.699999809265137 0,8.600000381469727 c3.799999952316284,0 7.5,0 11.300000190734863,0 c0,0.8999999761581421 0,1.7000000476837158 0,2.5 c-4.900000095367432,0 -9.800000190734863,0 -14.699999809265137,0 C320.4984130859375,150.698486328125 320.4984130859375,142.7984619140625 320.4984130859375,134.8984375 z" id="svg_21" class=""/><path d="M58.09844970703125,158.4984130859375 c0,-7.900000095367432 0,-15.699999809265137 0,-23.600000381469727 c4.699999809265137,0 9.399999618530273,0 14.199999809265137,0 c0,0.800000011920929 0,1.600000023841858 0,2.5 c-3.5999999046325684,0 -7.099999904632568,0 -10.800000190734863,0 c0,2.5 0,4.900000095367432 0,7.5 c3.299999952316284,0 6.699999809265137,0 10.199999809265137,0 c0,0.8999999761581421 0,1.600000023841858 0,2.5 c-3.4000000953674316,0 -6.699999809265137,0 -10.199999809265137,0 c0,2.9000000953674316 0,5.699999809265137 0,8.600000381469727 c3.799999952316284,0 7.5,0 11.300000190734863,0 c0,0.8999999761581421 0,1.7000000476837158 0,2.5 C67.9984130859375,158.4984130859375 63.09844970703125,158.4984130859375 58.09844970703125,158.4984130859375 z" id="svg_22" class=""/><path d="M534.598388671875,158.4984130859375 c-5,0 -9.800000190734863,0 -14.699999809265137,0 c0,-7.900000095367432 0,-15.699999809265137 0,-23.600000381469727 c4.699999809265137,0 9.399999618530273,0 14.199999809265137,0 c0,0.800000011920929 0,1.600000023841858 0,2.5 c-3.5999999046325684,0 -7.099999904632568,0 -10.800000190734863,0 c0,2.5 0,4.900000095367432 0,7.5 c3.299999952316284,0 6.699999809265137,0 10.199999809265137,0 c0,0.8999999761581421 0,1.7000000476837158 0,2.5999999046325684 c-3.4000000953674316,0 -6.699999809265137,0 -10.199999809265137,0 c0,2.9000000953674316 0,5.699999809265137 0,8.600000381469727 c3.799999952316284,0 7.5,0 11.300000190734863,0 C534.598388671875,156.8984375 534.598388671875,157.698486328125 534.598388671875,158.4984130859375 z" id="svg_23" class=""/><path d="M552.598388671875,135.598388671875 c-0.4000000059604645,1 -0.6000000238418579,1.600000023841858 -0.8999999761581421,2.299999952316284 c0,0.10000000149011612 -0.10000000149011612,0.20000000298023224 0,0 c-2,-0.30000001192092896 -3.9000000953674316,-0.5 -5.699999809265137,-0.699999988079071 c-0.6000000238418579,-0.10000000149011612 -1.2999999523162842,0.10000000149011612 -1.899999976158142,0.30000001192092896 c-1.2999999523162842,0.5 -2.299999952316284,1.2999999523162842 -2.5,2.799999952316284 c-0.20000000298023224,1.5 0.5,2.5999999046325684 1.7000000476837158,3.299999952316284 c1.100000023841858,0.6000000238418579 2.299999952316284,1 3.5,1.600000023841858 c1.2000000476837158,0.5 2.4000000953674316,1 3.5999999046325684,1.600000023841858 c2.200000047683716,1.2000000476837158 3.299999952316284,3.0999999046325684 3.0999999046325684,5.599999904632568 c-0.10000000149011612,2.5 -1.5,4.199999809265137 -3.700000047683716,5.300000190734863 c-2.4000000953674316,1.2000000476837158 -4.900000095367432,1.2999999523162842 -7.5,1 c-1.600000023841858,-0.20000000298023224 -3.200000047683716,-0.699999988079071 -4.900000095367432,-1.100000023841858 c0.4000000059604645,-1.100000023841858 0.699999988079071,-1.899999976158142 1,-2.799999952316284 c2.200000047683716,1 4.300000190734863,1.600000023841858 6.699999809265137,1.5 c0.4000000059604645,0 0.800000011920929,0 1.2000000476837158,-0.10000000149011612 c2.200000047683716,-0.4000000059604645 3.5999999046325684,-1.7000000476837158 3.799999952316284,-3.5 c0.20000000298023224,-1.7000000476837158 -0.699999988079071,-3.0999999046325684 -2.700000047683716,-4.099999904632568 c-1.2999999523162842,-0.6000000238418579 -2.5999999046325684,-0.8999999761581421 -3.9000000953674316,-1.5 c-1.2000000476837158,-0.6000000238418579 -2.5,-1.2000000476837158 -3.5999999046325684,-2.0999999046325684 c-2.5999999046325684,-2.299999952316284 -2.4000000953674316,-6.199999809265137 0.4000000059604645,-8.399999618530273 c2.5,-2 5.5,-2.200000047683716 8.5,-1.899999976158142 C549.9984130859375,134.8984375 551.198486328125,135.2984619140625 552.598388671875,135.598388671875 z" id="svg_24" class=""/><path d="M358.2984619140625,135.4984130859375 c-0.30000001192092896,1 -0.6000000238418579,1.7999999523162842 -0.8999999761581421,2.5999999046325684 c-2.5999999046325684,-0.8999999761581421 -5.199999809265137,-1.2000000476837158 -7.800000190734863,-0.699999988079071 c-5.199999809265137,0.8999999761581421 -8.100000381469727,4.699999809265137 -7.800000190734863,10.100000381469727 c0.30000001192092896,5 3.700000047683716,8.5 8.899999618530273,8.600000381469727 c2.200000047683716,0.10000000149011612 4.5,-0.30000001192092896 6.800000190734863,-0.5 c0.8999999761581421,2.200000047683716 0.8999999761581421,2.299999952316284 -1.7000000476837158,2.799999952316284 c-3.200000047683716,0.6000000238418579 -6.300000190734863,0.699999988079071 -9.5,-0.20000000298023224 c-4.699999809265137,-1.399999976158142 -7.5,-4.400000095367432 -8.199999809265137,-9.300000190734863 c-0.6000000238418579,-4.800000190734863 0.699999988079071,-9 4.900000095367432,-11.800000190734863 C347.8984375,133.9984130859375 352.9984130859375,134.098388671875 358.2984619140625,135.4984130859375 z" id="svg_25" class=""/><path d="M47.09844970703125,158.598388671875 c-1.2999999523162842,0 -2.299999952316284,0 -3.5,0 c0,-7 0,-13.899999618530273 0,-21 c-2.700000047683716,0 -5.300000190734863,0 -8,0 c0,-1 0,-1.7999999523162842 0,-2.700000047683716 c6.5,0 12.899999618530273,0 19.5,0 c0,0.800000011920929 0,1.600000023841858 0,2.5999999046325684 c-2.5999999046325684,0 -5.199999809265137,0 -8,0 C47.09844970703125,144.4984130859375 47.09844970703125,151.4984130859375 47.09844970703125,158.598388671875 z" id="svg_26" class=""/><path d="M305.8984375,137.4984130859375 c-2.799999952316284,0 -5.300000190734863,0 -8,0 c0,-0.8999999761581421 0,-1.7000000476837158 0,-2.5999999046325684 c6.400000095367432,0 12.899999618530273,0 19.5,0 c0,0.800000011920929 0,1.600000023841858 0,2.5 c-2.5999999046325684,0 -5.300000190734863,0 -8,0 c0,7.099999904632568 0,14.100000381469727 0,21.100000381469727 c-1.2000000476837158,0 -2.200000047683716,0 -3.5,0 C305.8984375,151.598388671875 305.8984375,144.598388671875 305.8984375,137.4984130859375 z" id="svg_27" class=""/><path d="M161.3984375,137.4984130859375 c-2.700000047683716,0 -5.300000190734863,0 -8,0 c0,7 0,14 0,21 c-1.2000000476837158,0 -2.299999952316284,0 -3.5,0 c0,-7 0,-13.899999618530273 0,-21 c-2.700000047683716,0 -5.300000190734863,0 -8,0 c0,-1 0,-1.7999999523162842 0,-2.700000047683716 c6.5,0 12.899999618530273,0 19.5,0 C161.3984375,135.698486328125 161.3984375,136.4984130859375 161.3984375,137.4984130859375 z" id="svg_28" class=""/><path d="M444.4984130859375,155.9984130859375 c3.9000000953674316,0 7.5,0 11.300000190734863,0 c0,0.8999999761581421 0,1.600000023841858 0,2.5 c-4.800000190734863,0 -9.699999809265137,0 -14.600000381469727,0 c0,-7.900000095367432 0,-15.699999809265137 0,-23.600000381469727 c1.100000023841858,0 2.0999999046325684,0 3.299999952316284,0 C444.4984130859375,141.8984375 444.4984130859375,148.8984375 444.4984130859375,155.9984130859375 z" id="svg_29" class=""/><path d="M510.4984130859375,158.4984130859375 c0,-7.900000095367432 0,-15.699999809265137 0,-23.600000381469727 c1.100000023841858,0 2.0999999046325684,0 3.299999952316284,0 c0,7.800000190734863 0,15.699999809265137 0,23.600000381469727 C512.698486328125,158.4984130859375 511.698486328125,158.4984130859375 510.4984130859375,158.4984130859375 z" id="svg_30" class=""/><path d="M6.69842529296875,158.598388671875 c-1.100000023841858,0 -2.0999999046325684,0 -3.200000047683716,0 c0,-7.900000095367432 0,-15.699999809265137 0,-23.600000381469727 c1.100000023841858,0 2.0999999046325684,0 3.200000047683716,0 C6.69842529296875,142.7984619140625 6.69842529296875,150.598388671875 6.69842529296875,158.598388671875 z" id="svg_31" class=""/><path d="M572.4984130859375,12.9984130859375 c0,3.9000000953674316 -2.9000000953674316,6.800000190734863 -6.800000190734863,6.900000095367432 c-3.9000000953674316,0 -6.900000095367432,-3 -6.900000095367432,-6.900000095367432 c0,-3.799999952316284 3,-6.800000190734863 6.900000095367432,-6.800000190734863 C569.4984130859375,6.198486328125 572.4984130859375,9.198486328125 572.4984130859375,12.9984130859375 zM565.698486328125,7.598388671875 c-2.9000000953674316,0 -5.300000190734863,2.4000000953674316 -5.300000190734863,5.400000095367432 c0,3 2.4000000953674316,5.5 5.199999809265137,5.400000095367432 c2.700000047683716,0 5,-2.4000000953674316 5,-5.300000190734863 C570.7984619140625,10.098388671875 568.4984130859375,7.598388671875 565.698486328125,7.598388671875 z" id="svg_32" class=""/><path class="st0" d="M391.3984375,57.8984375 c0,-10.300000190734863 0,-20.600000381469727 0,-30.799999237060547 c0,-3.200000047683716 0.10000000149011612,-6.300000190734863 0.20000000298023224,-9.5 c0.20000000298023224,-3.700000047683716 1.5,-5.300000190734863 5.099999904632568,-5.5 c10.600000381469727,-0.5 21,0.4000000059604645 30.700000762939453,5.199999809265137 c8.600000381469727,4.199999809265137 14.5,11 18.899999618530273,19.299999237060547 c3.9000000953674316,7.400000095367432 5.5,15.399999618530273 5,23.700000762939453 c-0.5,8.800000190734863 -2.700000047683716,17.299999237060547 -7,25 c-5.199999809265137,9.100000381469727 -13.300000190734863,14.5 -23.200000762939453,17.200000762939453 c-5,1.399999976158142 -10.199999809265137,2 -15.399999618530273,2.200000047683716 c-3,0.10000000149011612 -6.099999904632568,0.30000001192092896 -9,-0.5 c-3.0999999046325684,-0.800000011920929 -4.699999809265137,-2.5999999046325684 -4.900000095367432,-5.699999809265137 c-0.20000000298023224,-2.4000000953674316 -0.20000000298023224,-4.900000095367432 -0.30000001192092896,-7.300000190734863 C391.3984375,80.098388671875 391.3984375,68.9984130859375 391.3984375,57.8984375 C391.3984375,57.8984375 391.3984375,57.8984375 391.3984375,57.8984375 z" id="svg_33"/><path class="st0" d="M375.7984619140625,58.598388671875 c0,12.100000381469727 0,24.100000381469727 0,36.20000076293945 c0,1.7999999523162842 -0.10000000149011612,3.5999999046325684 -0.5,5.300000190734863 c-1,4.5 -4,7.099999904632568 -8.5,7.800000190734863 c-3.200000047683716,0.6000000238418579 -6.400000095367432,0.4000000059604645 -9.600000381469727,-0.6000000238418579 c-4,-1.2999999523162842 -6.599999904632568,-4.5 -6.900000095367432,-8.699999809265137 c-0.10000000149011612,-1.7999999523162842 -0.20000000298023224,-3.5999999046325684 -0.20000000298023224,-5.400000095367432 c0,-23.899999618530273 0,-47.900001525878906 0,-71.80000305175781 c0,-2.5 0.30000001192092896,-4.900000095367432 1.600000023841858,-7 c1.899999976158142,-3.200000047683716 4.900000095367432,-4.5 8.300000190734863,-5 c2.5999999046325684,-0.4000000059604645 5.199999809265137,-0.4000000059604645 7.699999809265137,0.30000001192092896 c4.900000095367432,1.2000000476837158 7.800000190734863,4.800000190734863 7.900000095367432,9.800000190734863 c0.10000000149011612,3.5999999046325684 0.10000000149011612,7.300000190734863 0.20000000298023224,10.899999618530273 C375.8984375,39.7984619140625 375.7984619140625,49.198486328125 375.7984619140625,58.598388671875 z" id="svg_34"/><path class="st0" d="M221.7984619140625,156.198486328125 c0,-6.300000190734863 0,-12.5 0,-18.799999237060547 c3.700000047683716,-0.5 7.400000095367432,-0.699999988079071 10.699999809265137,1.2999999523162842 c3.4000000953674316,2.0999999046325684 4.199999809265137,5.400000095367432 3.700000047683716,9.100000381469727 c-0.6000000238418579,4.900000095367432 -3.5,7.800000190734863 -8.399999618530273,8.399999618530273 C225.8984375,156.3984375 223.8984375,156.198486328125 221.7984619140625,156.198486328125 z" id="svg_35"/><path class="st0" d="M187.2984619140625,156.198486328125 c0,-6.300000190734863 0,-12.5 0,-18.799999237060547 c3.700000047683716,-0.5 7.400000095367432,-0.699999988079071 10.699999809265137,1.2999999523162842 c3.4000000953674316,2.0999999046325684 4.199999809265137,5.400000095367432 3.700000047683716,9.100000381469727 c-0.6000000238418579,4.900000095367432 -3.5,7.800000190734863 -8.399999618530273,8.399999618530273 C191.3984375,156.3984375 189.3984375,156.198486328125 187.2984619140625,156.198486328125 z" id="svg_36"/><path class="st0" d="M432.9984130859375,146.2984619140625 c-0.20000000298023224,3.4000000953674316 -0.8999999761581421,6.099999904632568 -3.0999999046325684,8 c-2.4000000953674316,2.0999999046325684 -5.199999809265137,2.5 -8.199999809265137,1.5 c-3.200000047683716,-1.100000023841858 -4.800000190734863,-3.5999999046325684 -5.5,-6.699999809265137 c-0.4000000059604645,-2 -0.30000001192092896,-4.099999904632568 0.4000000059604645,-6 c1.2000000476837158,-3.799999952316284 4.099999904632568,-6 7.900000095367432,-6 c3.799999952316284,0 6.900000095367432,2.299999952316284 8,6.099999904632568 C432.7984619140625,144.3984375 432.8984375,145.598388671875 432.9984130859375,146.2984619140625 z" id="svg_37"/><path class="st0" d="M459.7984619140625,147.4984130859375 c0.20000000298023224,-3.9000000953674316 1,-6.699999809265137 3.5,-8.699999809265137 c3.9000000953674316,-3.0999999046325684 9.800000190734863,-1.899999976158142 12.199999809265137,2.5 c1.7999999523162842,3.4000000953674316 1.7999999523162842,6.800000190734863 0.30000001192092896,10.300000190734863 c-1.399999976158142,3.0999999046325684 -4,4.699999809265137 -7.400000095367432,4.699999809265137 c-3.4000000953674316,0 -6,-1.600000023841858 -7.400000095367432,-4.800000190734863 C460.2984619140625,149.9984130859375 459.9984130859375,148.3984375 459.7984619140625,147.4984130859375 z" id="svg_38"/><path class="st0" d="M106.09844970703125,145.8984375 c0,-3 0,-5.800000190734863 0,-8.600000381469727 c2.200000047683716,-0.4000000059604645 4.5,-0.5 6.599999904632568,0.30000001192092896 c1.600000023841858,0.6000000238418579 2.5999999046325684,1.7999999523162842 2.700000047683716,3.5999999046325684 c0.10000000149011612,1.7999999523162842 -0.699999988079071,3.4000000953674316 -2.4000000953674316,3.9000000953674316 c-1.600000023841858,0.5 -3.4000000953674316,0.6000000238418579 -5.099999904632568,0.800000011920929 C107.3984375,145.9984130859375 106.7984619140625,145.8984375 106.09844970703125,145.8984375 z" id="svg_39"/><path class="st0" d="M275.198486328125,148.698486328125 c1.2999999523162842,-3.5999999046325684 2.5999999046325684,-7.199999809265137 3.799999952316284,-10.699999809265137 c1.2999999523162842,3.5 2.5999999046325684,7.099999904632568 3.9000000953674316,10.699999809265137 C280.3984375,148.698486328125 277.8984375,148.698486328125 275.198486328125,148.698486328125 z" id="svg_40"/><path class="st0" d="M129.09844970703125,148.698486328125 c1.2999999523162842,-3.5999999046325684 2.5999999046325684,-7.099999904632568 3.799999952316284,-10.699999809265137 c1.2999999523162842,3.5 2.5999999046325684,7.099999904632568 3.9000000953674316,10.699999809265137 C134.19842529296875,148.698486328125 131.69842529296875,148.698486328125 129.09844970703125,148.698486328125 z" id="svg_41"/><path class="st0" d="M565.698486328125,7.598388671875 c2.799999952316284,0 5,2.5 5,5.5 c0,3 -2.299999952316284,5.300000190734863 -5,5.300000190734863 c-2.799999952316284,0 -5.199999809265137,-2.5 -5.199999809265137,-5.400000095367432 C560.4984130859375,10.098388671875 562.8984375,7.598388671875 565.698486328125,7.598388671875 zM563.098388671875,16.4984130859375 c0.5,0 1,0 1.5,0 c0,-0.8999999761581421 0.10000000149011612,-1.7999999523162842 0.10000000149011612,-2.5999999046325684 c1.2999999523162842,-0.20000000298023224 1.899999976158142,0.20000000298023224 2.0999999046325684,1.399999976158142 c0.30000001192092896,1.5 0.5,1.600000023841858 2.0999999046325684,1.100000023841858 c-0.4000000059604645,-1.100000023841858 -0.800000011920929,-2.200000047683716 -1.100000023841858,-3.0999999046325684 c0.30000001192092896,-0.800000011920929 0.699999988079071,-1.600000023841858 0.699999988079071,-2.299999952316284 c-0.10000000149011612,-1 -1.100000023841858,-1.2999999523162842 -2,-1.2999999523162842 c-1.100000023841858,-0.10000000149011612 -2.200000047683716,0 -3.4000000953674316,0 C563.098388671875,12.098388671875 563.098388671875,14.2984619140625 563.098388671875,16.4984130859375 z" id="svg_42"/><path d="M563.098388671875,16.4984130859375 c0,-2.200000047683716 0,-4.400000095367432 0,-6.800000190734863 c1.2000000476837158,0 2.299999952316284,0 3.4000000953674316,0 c0.8999999761581421,0 1.899999976158142,0.30000001192092896 2,1.2999999523162842 c0.10000000149011612,0.699999988079071 -0.4000000059604645,1.399999976158142 -0.699999988079071,2.299999952316284 c0.30000001192092896,0.800000011920929 0.699999988079071,1.899999976158142 1.100000023841858,3.0999999046325684 c-1.7000000476837158,0.4000000059604645 -1.7999999523162842,0.4000000059604645 -2.0999999046325684,-1.100000023841858 c-0.20000000298023224,-1.100000023841858 -0.800000011920929,-1.600000023841858 -2.0999999046325684,-1.399999976158142 c0,0.800000011920929 -0.10000000149011612,1.7000000476837158 -0.10000000149011612,2.5999999046325684 C564.098388671875,16.4984130859375 563.598388671875,16.4984130859375 563.098388671875,16.4984130859375 zM564.7984619140625,10.7984619140625 c0,0.6000000238418579 0,1.2000000476837158 0,1.7999999523162842 c0.8999999761581421,-0.10000000149011612 2,0.10000000149011612 2,-1 C566.7984619140625,10.598388671875 565.698486328125,10.7984619140625 564.7984619140625,10.7984619140625 z" id="svg_43" class=""/><path class="st0" d="M564.7984619140625,10.7984619140625 c0.8999999761581421,0 2,-0.20000000298023224 2,0.800000011920929 c0,1.2000000476837158 -1.100000023841858,0.8999999761581421 -2,1 C564.7984619140625,12.098388671875 564.7984619140625,11.4984130859375 564.7984619140625,10.7984619140625 z" id="svg_44"/></g></svg>